<?xml version="1.0" encoding="UTF-8"?>
<svg width="16px" height="16px" viewBox="0 0 16 16" version="1.1" xmlns="http://www.w3.org/2000/svg" xmlns:xlink="http://www.w3.org/1999/xlink">
    <title>地址</title>
    <defs>
        <linearGradient x1="50%" y1="0%" x2="50%" y2="100%" id="linearGradient-1">
            <stop stop-color="#2177FF" offset="0%"></stop>
            <stop stop-color="#4E92FF" offset="100%"></stop>
        </linearGradient>
    </defs>
    <g id="Page-1" stroke="none" stroke-width="1" fill="none" fill-rule="evenodd">
        <g id="画板" transform="translate(-298, -235)">
            <g id="地址" transform="translate(298, 235)">
                <ellipse id="椭圆形" fill="#FFFFFF" cx="8" cy="4.5" rx="3" ry="3.5"></ellipse>
                <path d="M4.45190633,12.4144482 C4.49048313,12.6544182 4.32846058,12.8343957 4.09892864,12.8743907 C3.24252375,13.0183727 2.05821609,13.2903387 1.55286005,13.4983127 C0.993496496,13.728284 1.04750401,13.7942757 1.04750401,13.8382702 C1.04750401,13.8742657 1.05907705,14.016248 1.44098734,14.2022247 C1.81132459,14.3822022 2.34754206,14.5501812 2.99177457,14.6921635 C4.37475274,14.992126 6.18593335,15.1581052 8.09741363,15.1581052 C10.0069651,15.1581052 11.8200745,14.992126 13.2030527,14.6921635 C13.849214,14.552181 14.3854315,14.3822022 14.7538399,14.2022247 C15.137679,14.0182477 15.066312,13.8782652 15.0817427,13.8462692 C15.0624543,13.8062742 15.0103756,13.728284 14.4510121,13.5003125 C13.945656,13.2923385 12.861648,13.0263717 12.007172,12.8823897 C11.7757112,12.8423947 11.6156175,12.6764154 11.6522655,12.4364454 C11.6908423,12.1964754 11.8914416,12.0304962 12.1229024,12.0684914 C13.1201126,12.2344707 14.2253378,12.5544307 14.8618549,12.7784027 C15.619889,13.0443695 15.9188592,13.3103362 15.9921551,13.8142732 C16.0963124,14.5301837 15.1588963,15.0841145 13.4422288,15.4780652 C11.9840259,15.816023 10.0513284,16 7.9990428,16 C5.94675721,16 4.01405969,15.816023 2.55392793,15.4780652 C0.839189308,15.080115 -0.0962980143,14.528184 0.00785933708,13.8122735 C0.0792264112,13.312336 0.383983106,13.0683665 1.13623064,12.7804024 C1.76503243,12.5404324 3.00334761,12.2364704 4.00055781,12.0684914 C4.23201859,12.0284964 4.41332953,12.1764779 4.45190633,12.4144482 Z M7.95275064,0 C10.5393249,0 12.7960675,2.15573053 12.7979963,4.84139483 C12.7979963,4.89938758 12.7960675,5.01537308 12.7941386,5.08736408 C12.7671349,5.77727784 12.6610487,6.1272341 12.4025842,6.76115486 C12.3350748,6.92913386 12.0418911,7.45306837 12.0418911,7.45306837 C12.0418911,7.45306837 8.88823796,13.0343707 8.65099066,13.5143107 C8.50246999,13.8142732 8.17456722,13.928259 7.9701102,13.928259 C7.75986666,13.928259 7.46282532,13.8042745 7.28537206,13.5143107 C6.96904232,12.9963755 4.12979008,7.51106112 4.10085748,7.45306837 L3.75559515,6.76315461 C3.53956508,6.23722035 3.36982718,5.66529184 3.34282342,5.09336333 C3.33896574,5.01137358 3.33703142,4.92738408 3.33703142,4.84739408 C3.33317922,2.16772903 5.36617641,0 7.95275064,0 Z M7.9990428,2.00574928 C6.56784363,2.00574928 5.40861089,3.20759905 5.40861089,4.69141357 C5.40861089,6.1752281 6.56784363,7.37707787 7.9990428,7.37707787 C9.43024196,7.37707787 10.5894747,6.1752281 10.5894747,4.69141357 C10.5894747,3.20759905 9.43024196,2.00574928 7.9990428,2.00574928 Z" id="形状结合" fill="url(#linearGradient-1)" fill-rule="nonzero"></path>
            </g>
        </g>
    </g>
</svg>