<?xml version="1.0" encoding="UTF-8"?>
<svg width="16px" height="16px" viewBox="0 0 16 16" version="1.1" xmlns="http://www.w3.org/2000/svg" xmlns:xlink="http://www.w3.org/1999/xlink">
    <title>资料完整度分析</title>
    <defs>
        <linearGradient x1="50%" y1="0%" x2="50%" y2="100%" id="linearGradient-1">
            <stop stop-color="#2177FF" offset="0%"></stop>
            <stop stop-color="#4E92FF" offset="100%"></stop>
        </linearGradient>
    </defs>
    <g id="Page-1" stroke="none" stroke-width="1" fill="none" fill-rule="evenodd">
        <g id="画板" transform="translate(-363, -307)">
            <g id="资料完整度分析" transform="translate(363, 307)">
                <rect id="矩形" fill="#FFFFFF" x="2" y="2" width="12" height="12"></rect>
                <path d="M15.1111111,0 C15.6020309,0 16,0.397969114 16,0.888888896 L16,15.1111111 C16,15.6020309 15.6020309,16 15.1111111,16 L0.888888896,16 C0.397969114,16 0,15.6020309 0,15.1111111 L0,0.888888896 C0,0.397969114 0.397969114,0 0.888888896,0 L15.1111111,0 L15.1111111,0 Z M4.8888889,6.22222223 L4,6.22222223 C3.75454012,6.22222223 3.55555556,6.42120678 3.55555556,6.66666667 L3.55555556,12 C3.55555556,12.2454599 3.75454012,12.4444444 4,12.4444444 L4.8888889,12.4444444 C5.13434878,12.4444444 5.33333333,12.2454599 5.33333333,12 L5.33333333,6.66666667 C5.33333333,6.42120678 5.13434878,6.22222223 4.8888889,6.22222223 L4.8888889,6.22222223 Z M8.44444444,3.55555556 L7.55555556,3.55555556 C7.43768157,3.55555556 7.32463538,3.60238082 7.24128587,3.68573032 C7.15793637,3.76907982 7.1111111,3.882126 7.1111111,4 L7.1111111,12 C7.1111111,12.117874 7.15793637,12.2309202 7.24128587,12.3142697 C7.32463538,12.3976192 7.43768157,12.4444444 7.55555556,12.4444444 L8.44444444,12.4444444 C8.56231843,12.4444444 8.67536462,12.3976192 8.75871413,12.3142697 C8.84206363,12.2309202 8.8888889,12.117874 8.8888889,12 L8.8888889,4 C8.8888889,3.882126 8.84206363,3.76907982 8.75871413,3.68573032 C8.67536462,3.60238082 8.56231843,3.55555556 8.44444444,3.55555556 L8.44444444,3.55555556 Z M12,8.8888889 L11.1111111,8.8888889 C10.8656512,8.8888889 10.6666667,9.08787345 10.6666667,9.33333333 L10.6666667,12 C10.6666667,12.2454599 10.8656512,12.4444444 11.1111111,12.4444444 L12,12.4444444 C12.2454599,12.4444444 12.4444444,12.2454599 12.4444444,12 L12.4444444,9.33333333 C12.4444444,9.08787345 12.2454599,8.8888889 12,8.8888889 Z" id="形状" fill="url(#linearGradient-1)" fill-rule="nonzero"></path>
            </g>
        </g>
    </g>
</svg>