<?xml version="1.0" encoding="UTF-8"?>
<svg width="14px" height="16px" viewBox="0 0 14 16" version="1.1" xmlns="http://www.w3.org/2000/svg" xmlns:xlink="http://www.w3.org/1999/xlink">
    <title>买车险</title>
    <defs>
        <linearGradient x1="50%" y1="0%" x2="50%" y2="100%" id="linearGradient-1">
            <stop stop-color="#2177FF" offset="0%"></stop>
            <stop stop-color="#4E92FF" offset="100%"></stop>
        </linearGradient>
    </defs>
    <g id="Page-1" stroke="none" stroke-width="1" fill="none" fill-rule="evenodd">
        <g id="画板" transform="translate(-150, -343)">
            <g id="买车险" transform="translate(150, 343)">
                <rect id="矩形" fill="#FFFFFF" x="3" y="3" width="9" height="9"></rect>
                <path d="M6.8032,0.0293486121 C6.92774386,-0.0097828707 7.06265614,-0.0097828707 7.1872,0.0293486121 L13.5916,2.038669 C13.8355865,2.11515131 14,2.32791172 14,2.56741792 L14,9.41399109 C14,11.4512187 11.74,13.5803541 7.29799999,15.9271659 C7.11447341,16.0241452 6.8896673,16.0242865 6.706,15.927538 C2.2612,13.5855635 0,11.456056 0,9.41399109 L0,2.56741792 C0,2.32800999 0.164171467,2.11527953 0.408,2.038669 L6.8032,0.0293486121 Z M10.1968,3.99924475 L5.8264,3.99924475 L5.8264,6.65824539 L7.5256,6.65824539 L7.5256,7.21415736 L5.5168,7.21415736 L5.5168,8.05137419 L6.2656,8.05137419 C6.2368,8.3684003 6.1588,8.63854226 6.0316,8.86180008 C5.92800866,9.05097489 5.76766667,9.20814518 5.56999999,9.31426926 L5.4952,9.35073471 L5.4952,10.328604 C5.73209986,10.2877719 5.95751905,10.2022987 6.1576,10.0774389 C6.364,9.95018195 6.544,9.78720375 6.6976,9.58850428 C6.85747933,9.37824055 6.98247568,9.14681601 7.0684,8.90198649 C7.15088656,8.66892127 7.20063228,8.42691288 7.21639999,8.18198002 L7.2232,8.05137419 L7.5256,8.05137419 L7.5256,10.42907 L8.4976,10.42907 L8.4976,8.05137419 L8.7928,8.05137419 C8.8072,8.35946998 8.86,8.64300742 8.9512,8.90198649 C9.03512996,9.14757567 9.16027507,9.37927564 9.322,9.58850428 C9.478,9.78720375 9.6592,9.95018195 9.8656,10.0774389 C10.0424,10.1864632 10.2316,10.2634871 10.4336,10.3088828 L10.5352,10.328604 L10.5352,9.35073471 C10.3048,9.25696642 10.1248,9.09622079 9.9952,8.86849781 C9.8816,8.66942626 9.8072,8.43574973 9.7708,8.16821246 L9.7576,8.05137419 L10.5136,8.05137419 L10.5136,7.21415736 L8.4976,7.21415736 L8.4976,6.65824539 L10.1968,6.65824539 L10.1968,3.99924475 Z M5.3872,3.83849912 L4.4224,3.83849912 C4.3984,4.03943116 4.3624,4.23813062 4.3144,4.4345975 C4.26750897,4.62777773 4.20369584,4.81706277 4.1236,5.00055607 C4.0471937,5.17646718 3.95191163,5.34476202 3.8392,5.50288617 C3.7512,5.62605006 3.652,5.7358185 3.54199999,5.83181937 L3.4576,5.90140138 L3.4576,7.0266208 C3.63799999,6.93359671 3.81079999,6.82531667 3.976,6.70066438 L4.0984,6.60466351 L4.0984,10.4156745 L5.0704,10.4156745 L5.0704,5.20483698 C5.1472,5.00390494 5.2108,4.78957743 5.2612,4.56185446 C5.2992,4.39106222 5.332,4.21282806 5.3604,4.02677989 L5.3872,3.83849912 L5.3872,3.83849912 Z M9.2248,4.83646158 L9.2248,5.82102856 L6.7984,5.82102856 L6.7984,4.83646158 L9.2248,4.83646158 Z" id="形状" fill="url(#linearGradient-1)" fill-rule="nonzero"></path>
            </g>
        </g>
    </g>
</svg>