<?xml version="1.0" encoding="UTF-8"?>
<svg width="18px" height="16px" viewBox="0 0 18 16" version="1.1" xmlns="http://www.w3.org/2000/svg" xmlns:xlink="http://www.w3.org/1999/xlink">
    <title>货车</title>
    <defs>
        <linearGradient x1="50%" y1="0%" x2="50%" y2="100%" id="linearGradient-1">
            <stop stop-color="#2177FF" offset="0%"></stop>
            <stop stop-color="#4E92FF" offset="100%"></stop>
        </linearGradient>
    </defs>
    <g id="Page-1" stroke="none" stroke-width="1" fill="none" fill-rule="evenodd">
        <g id="画板" transform="translate(-360, -272)">
            <g id="货车" transform="translate(360, 272)">
                <circle id="椭圆形" fill="#FFFFFF" cx="3.5" cy="13.5" r="1.5"></circle>
                <circle id="椭圆形备份" fill="#FFFFFF" cx="14.5" cy="13.5" r="1.5"></circle>
                <rect id="矩形" fill="#FFFFFF" x="12" y="5" width="5" height="5"></rect>
                <path d="M0.347532279,13.6090896 L1.19464221,13.6090896 C1.19464221,14.9276571 2.20682997,16 3.45142995,16 C4.69602993,16 5.70821769,14.9276571 5.70821769,13.6090896 L10.3108483,13.6090896 C10.5019911,13.6090896 10.6583806,13.4434057 10.6583806,13.2409032 L10.6583806,0.368186394 C10.6583806,0.165683877 10.5019911,0 10.3108483,0 L0.347532279,0 C0.156389526,0 0,0.165683877 0,0.368186394 L0,13.2409032 C0,13.4434057 0.156389526,13.6090896 0.347532279,13.6090896 L0.347532279,13.6090896 Z M3.44925787,14.9529699 C2.74984916,14.9529699 2.18076505,14.3500647 2.18076505,13.6090896 C2.18076505,12.8681145 2.74984916,12.2652093 3.44925787,12.2652093 C4.14866659,12.2652093 4.71775689,12.8681145 4.71775689,13.6090896 C4.71992277,14.3500647 4.15083866,14.9529699 3.44925787,14.9529699 Z M17.8979124,5.97382425 L16.2015205,4.14900043 C16.1363582,4.07766432 16.047303,4.03854451 15.9539037,4.03854451 L11.8095813,4.03854451 C11.6184385,4.03854451 11.462049,4.20422839 11.462049,4.40673091 L11.462049,13.1764706 C11.462049,13.4111894 11.6336431,13.6090896 11.887776,13.6090896 L12.4047303,13.6090896 C12.4047303,14.9276571 13.4169181,16 14.661518,16 C15.906118,16 16.9183058,14.9276571 16.9183058,13.6090896 L17.6524677,13.6090896 C17.8436105,13.6090896 18,13.4434057 18,13.2409032 L18,6.23385589 C17.9978279,6.13720696 17.9630747,6.0428592 17.8979124,5.97382425 L17.8979124,5.97382425 Z M13.0259443,5.36171437 L15.4434657,5.36171437 C15.536865,5.36171437 15.6259201,5.40083417 15.6910824,5.47217029 L16.6815494,6.53760966 C16.7445396,6.60664461 16.7814649,6.69869121 16.7814649,6.79534014 L16.7814649,9.07119229 C16.7814649,9.27369481 16.6250754,9.43937869 16.4339327,9.43937869 L13.0259443,9.43937869 C12.8348015,9.43937869 12.678412,9.27369481 12.678412,9.07119229 L12.678412,5.72990076 C12.678412,5.52739825 12.8348015,5.36171437 13.0259443,5.36171437 Z M14.661518,14.9529699 C13.9621093,14.9529699 13.3930252,14.3500647 13.3930252,13.6090896 C13.3930252,12.8681145 13.9621093,12.2652093 14.661518,12.2652093 C15.3609268,12.2652093 15.9300109,12.8681145 15.9300109,13.6090896 C15.9300109,14.3500647 15.3609268,14.9529699 14.661518,14.9529699 Z" id="形状" fill="url(#linearGradient-1)" fill-rule="nonzero"></path>
            </g>
        </g>
    </g>
</svg>