<?xml version="1.0" standalone="no"?><!DOCTYPE svg PUBLIC "-//W3C//DTD SVG 1.1//EN" "http://www.w3.org/Graphics/SVG/1.1/DTD/svg11.dtd"><svg t="1754548292201" class="icon" viewBox="0 0 1024 1024" version="1.1" xmlns="http://www.w3.org/2000/svg" p-id="1910" xmlns:xlink="http://www.w3.org/1999/xlink" width="200" height="200"><path d="M908.01399781 198.6922175v391.50808219a238.36027312 238.36027312 0 0 0-106.64889187-84.4125975 243.15947344 243.15947344 0 0 0-91.34477625-17.70371625c-63.88268625 0-124.24595906 24.47592094-169.46508844 68.62856156a229.34844187 229.34844187 0 0 0-51.56473969 255.530745c37.32711187 87.18546937 124.08598594 143.38943531 220.60323281 143.6560575l4.10598188 0.10664906h0.69321844c28.79520094 0 57.32377969-5.59906688 83.82602906-16.21063125L738.06898813 991.94667594c-24.63589406 0-33.167805-0.05332406-42.92617876-0.10664906a13784.36927156 13784.36927156 0 0 0-71.82802875-0.15997313c-115.02082969-0.10664906-221.93634375-0.21329813-223.10948156-0.37327125l-177.30378281 0.15997313c-63.56274 0-164.50591594-38.92684594-164.50591594-143.38943532V222.10164969c0-124.8325275 82.75954031-190.20829875 164.50591594-190.20829875h520.55324156c99.98333625 0 164.55924 65.48241938 164.55924 166.79886656zM244.49791719 610.51691375c8.15864063 7.99866656 19.09015125 12.42459563 30.60823218 12.42459563l176.13064407-0.05332407a46.71221438 46.71221438 0 0 0 43.67272125-43.03282781 41.80636594 41.80636594 0 0 0-12.47791969-32.42126344 44.792535 44.792535 0 0 0-31.99466813-12.42459562l-171.06482249 0.26662219a41.37976969 41.37976969 0 0 0-36.047325 10.98483562c-9.33177844 9.17180438-13.7043825 22.3962675-11.35810688 31.78137a41.91301406 41.91301406 0 0 0 12.53124469 32.4745875z m26.12897812-163.27945313l0.053325 0.15997313 11.99800031 0.05332406 401.37310407-0.05332406a44.25928969 44.25928969 0 0 0 43.61939718-43.93934344c0-23.88935156-19.25012531-43.19280094-44.0459925-43.93934343l-408.78520218-0.05332407a43.51274813 43.51274813 0 0 0-30.394935 12.31794657 39.46009031 39.46009031 0 0 0-12.37127063 30.76820531 41.59306781 41.59306781 0 0 0 12.47791969 32.4745875c6.93217781 6.82552875 16.31728031 11.14480875 26.12897906 12.21129844z m0.053325-169.6783875v0.21329813l413.37110438-0.05332406a44.25928969 44.25928969 0 0 0 43.61939718-43.93934344c0-23.88935156-19.25012531-43.19280094-44.0459925-43.93934344l-404.1993 0.26662219a41.37976969 41.37976969 0 0 0-35.99400093 11.03815969c-9.3851025 9.11848031-13.7577075 22.3962675-11.35810688 31.72804594a41.48641875 41.48641875 0 0 0 12.47791969 32.4745875c7.03882687 6.87885375 16.31728031 11.19813375 26.12897906 12.2112975z" p-id="1911"></path><path d="M888.97717063 953.23312813c8.53191094 7.30544906 19.62339656 11.35810687 30.9815025 11.35810687a48.41859656 48.41859656 0 0 0 32.26129031-12.63789375 46.07232094 46.07232094 0 0 0-0.42659531-61.64305969l-80.62656282-78.92017968c15.09081844-27.35544094 23.35610719-58.12364625 23.99600063-89.37177188 0-73.42776188-44.95250813-138.85685719-114.48758531-166.90551562a187.86202313 187.86202313 0 0 0-70.65489094-13.70438251c-49.59173438 0-96.14397562 18.87685406-131.12481188 53.05782375a176.77053844 176.77053844 0 0 0-39.7800375 197.08715251c28.848525 67.45542375 96.09065156 111.02149687 171.17147157 111.02149593l4.10598281 0.10664906c33.22113 0 66.388935-10.02499594 93.95767312-28.26195656l80.62656282 78.81353156z m-275.31411469-231.21479813c0-49.00516594 40.95317437-88.89185156 91.29145125-88.89185063 23.99600063 0.05332406 47.45875688 9.54507563 64.41593062 26.12897813 16.85052469 16.53057844 26.55557437 39.56673844 26.55557438 63.66938812 1.65305813 23.72937844-7.252125 47.03216156-24.47592094 63.88268625a86.5989 86.5989 0 0 1-66.49558406 24.04932563c-50.33827687 0-91.29145125-39.83336156-91.29145125-88.8385275z" p-id="1912"></path></svg>