<?xml version="1.0" encoding="UTF-8"?>
<svg width="16px" height="16px" viewBox="0 0 16 16" version="1.1" xmlns="http://www.w3.org/2000/svg" xmlns:xlink="http://www.w3.org/1999/xlink">
    <title>配置管理</title>
    <defs>
        <linearGradient x1="50%" y1="0%" x2="50%" y2="100%" id="linearGradient-1">
            <stop stop-color="#2177FF" offset="0%"></stop>
            <stop stop-color="#4E92FF" offset="100%"></stop>
        </linearGradient>
    </defs>
    <g id="Page-1" stroke="none" stroke-width="1" fill="none" fill-rule="evenodd">
        <g id="画板" transform="translate(-220, -343)">
            <g id="配置管理" transform="translate(220, 343)">
                <rect id="矩形" fill="#FFFFFF" x="2" y="2" width="12" height="12"></rect>
                <path d="M14.6285714,0 C15.3859905,0 16,0.614009486 16,1.37142857 L16,14.6285714 C16,15.3859905 15.3859905,16 14.6285714,16 L1.37142857,16 C0.614009486,16 0,15.3859905 0,14.6285714 L0,1.37142857 C0,0.614009486 0.614009486,0 1.37142857,0 L14.6285714,0 L14.6285714,0 Z M5.02857143,2.85714286 C4.66547255,2.85714286 4.3653018,3.14015508 4.344,3.50262857 L4.34285714,3.54285714 L4.34285714,12.4571429 L4.344,12.4973714 C4.36496856,12.8601034 4.66523394,13.1435125 5.02857143,13.1435125 C5.39190892,13.1435125 5.6921743,12.8601034 5.71314286,12.4973714 L5.71428571,12.4571429 L5.71428571,3.54285714 L5.71314286,3.50262857 C5.69184106,3.14015508 5.39167031,2.85714286 5.02857143,2.85714286 L5.02857143,2.85714286 Z M10.9714286,2.85714286 C10.6083297,2.85714286 10.3081589,3.14015508 10.2868571,3.50262857 L10.2857143,3.54285714 L10.2857143,12.4571429 L10.2868571,12.4973714 C10.3078257,12.8601034 10.6080911,13.1435125 10.9714286,13.1435125 C11.3347661,13.1435125 11.6350314,12.8601034 11.656,12.4973714 L11.6571429,12.4571429 L11.6571429,3.54285714 L11.656,3.50262857 C11.6346982,3.14015508 11.3345275,2.85714286 10.9714286,2.85714286 L10.9714286,2.85714286 Z" id="形状" fill="url(#linearGradient-1)" fill-rule="nonzero"></path>
                <path d="M5.02857143,8.22857143 C5.91222703,8.22857143 6.62857143,8.94491583 6.62857143,9.82857143 C6.62857143,10.712227 5.91222703,11.4285714 5.02857143,11.4285714 C4.14491583,11.4285714 3.42857143,10.712227 3.42857143,9.82857143 C3.42857143,8.94491583 4.14491583,8.22857143 5.02857143,8.22857143 Z M10.9714286,4.57142857 C11.8550842,4.57142857 12.5714286,5.28777297 12.5714286,6.17142857 C12.5714286,7.05508417 11.8550842,7.77142857 10.9714286,7.77142857 C10.087773,7.77142857 9.37142857,7.05508417 9.37142857,6.17142857 C9.37142857,5.28777297 10.087773,4.57142857 10.9714286,4.57142857 Z" id="形状" fill="#FFFFFF" fill-rule="nonzero"></path>
            </g>
        </g>
    </g>
</svg>