<?xml version="1.0" encoding="UTF-8"?>
<svg width="18px" height="16px" viewBox="0 0 18 16" version="1.1" xmlns="http://www.w3.org/2000/svg" xmlns:xlink="http://www.w3.org/1999/xlink">
    <title>重大危险源台账</title>
    <defs>
        <linearGradient x1="50%" y1="0%" x2="50%" y2="100%" id="linearGradient-1">
            <stop stop-color="#2177FF" offset="0%"></stop>
            <stop stop-color="#4E92FF" offset="100%"></stop>
        </linearGradient>
    </defs>
    <g id="Page-1" stroke="none" stroke-width="1" fill="none" fill-rule="evenodd">
        <g id="画板" transform="translate(-216, -272)">
            <g id="重大危险源台账" transform="translate(216, 272)">
                <rect id="矩形" fill="#FFFFFF" x="6" y="5" width="6" height="10"></rect>
                <path d="M10.5064384,0.806689079 C12.8644641,4.97658268 15.3241908,9.25047919 17.7848176,13.5385983 C18.4184245,14.6141837 17.5634152,15.9991111 16.3844024,15.9991111 L16.3844024,16 L1.62154182,16 C0.339927888,16 -0.410680276,14.6150726 0.237326751,13.5385983 C2.6970535,9.26559071 5.15768027,5.09391929 7.61830704,0.806689079 C8.26631409,-0.26889636 9.8575314,-0.26889636 10.5064384,0.806689079 Z M10.4218375,6.22195062 L7.47070542,6.22195062 L6.29979269,10.3047307 L8.89542093,10.3047307 L7.11610158,14.2221728 L11.6998514,9.22647852 L8.74781931,9.22647852 L10.4236375,6.22195062 L10.4218375,6.22195062 Z" id="形状" fill="url(#linearGradient-1)" fill-rule="nonzero"></path>
            </g>
        </g>
    </g>
</svg>