<?xml version="1.0" encoding="UTF-8"?>
<svg width="16px" height="16px" viewBox="0 0 16 16" version="1.1" xmlns="http://www.w3.org/2000/svg" xmlns:xlink="http://www.w3.org/1999/xlink">
    <title>用水监测</title>
    <defs>
        <linearGradient x1="50%" y1="0%" x2="50%" y2="100%" id="linearGradient-1">
            <stop stop-color="#2177FF" offset="0%"></stop>
            <stop stop-color="#4E92FF" offset="100%"></stop>
        </linearGradient>
    </defs>
    <g id="Page-1" stroke="none" stroke-width="1" fill="none" fill-rule="evenodd">
        <g id="画板" transform="translate(-77, -307)">
            <g id="用水监测" transform="translate(77, 307)">
                <rect id="矩形" fill="#FFFFFF" x="1" y="1" width="14" height="14"></rect>
                <path d="M0.615111104,0 L15.3848889,0 C15.7244445,0 16,0.256012754 16,0.571817951 L16,15.4281366 C16,15.7439418 15.7244444,15.9999775 15.3848889,15.9999775 L0.615111104,15.9999775 C0.279021964,16.0027611 0.00390650006,15.7473857 0,15.4289787 L0,0.572660086 C0,0.256012754 0.275555563,0 0.615111104,0 Z M8,14.2878693 C8.65333333,14.2878693 9.2791111,14.0470152 9.74044444,13.6183623 C10.2026667,13.1888672 10.4613333,12.6077857 10.4613333,12.0014397 C10.4613333,11.1609768 9.6408889,9.6375325 8,7.43026469 C6.3591111,9.63669035 5.53777777,11.1601346 5.53777777,12.0014397 C5.53777777,12.6077857 5.79733333,13.1888672 6.25955556,13.6183623 C6.72177779,14.0470152 7.34666667,14.2878693 8,14.2878693 Z M14.7688889,1.21184981 L1.2311111,1.20595479 L1.2311111,5.71481086 L14.7688889,5.71481086 L14.7688889,1.21269196 L14.7688889,1.21184981 Z M3.84622223,2.28642963 L5.07733333,2.28642963 L5.07733333,4.57201711 L3.84622223,4.57201711 L3.84622223,2.28642963 Z M8.77066667,2.28642963 L8.77066667,4.57201711 L7.53777777,4.57201711 L7.53777777,2.28642963 L8.7688889,2.28642963 L8.77066667,2.28642963 Z M12.4631111,2.28642963 L12.4631111,4.57201711 L11.2302222,4.57201711 L11.232,2.28642963 L12.4631111,2.28642963 L12.4631111,2.28642963 Z" id="形状" fill="url(#linearGradient-1)" fill-rule="nonzero"></path>
            </g>
        </g>
    </g>
</svg>