<?xml version="1.0" encoding="UTF-8"?>
<svg width="16px" height="16px" viewBox="0 0 16 16" version="1.1" xmlns="http://www.w3.org/2000/svg" xmlns:xlink="http://www.w3.org/1999/xlink">
    <title>责任区域平面图</title>
    <defs>
        <linearGradient x1="50%" y1="0%" x2="50%" y2="100%" id="linearGradient-1">
            <stop stop-color="#2177FF" offset="0%"></stop>
            <stop stop-color="#4E92FF" offset="100%"></stop>
        </linearGradient>
    </defs>
    <g id="Page-1" stroke="none" stroke-width="1" fill="none" fill-rule="evenodd">
        <g id="画板" transform="translate(-327, -307)">
            <g id="责任区域平面图" transform="translate(327, 307)">
                <path d="M4.65112365,1.15498336 C4.32656501,8.88494022 4.16428569,12.7499187 4.16428569,12.7499187 C4.16428569,12.7499187 6.4678292,13.4999458 11.0749162,15 L11.309782,2.85417148 L4.65112365,1.15498336 Z" id="路径-2" fill="#FFFFFF"></path>
                <path d="M15.5555556,0 L15.4133333,0.0266666667 L10.6666667,1.86666667 L5.33333333,0 L0.32,1.6888889 C0.133333333,1.75111113 0,1.91111112 0,2.11555556 L0,15.5555556 C0,15.8044445 0.195555562,16 0.444444438,16 L0.586666667,15.9733333 L5.33333333,14.1333333 L10.6666667,16 L15.68,14.3111111 C15.8666667,14.2488889 16,14.0888889 16,13.8844444 L16,0.444444438 C16,0.195555542 15.8044444,0 15.5555556,0 Z M10.6666667,14.2222222 L5.33333333,12.3466667 L5.33333333,1.77777777 L10.6666667,3.65333333 L10.6666667,14.2222222 Z" id="形状" fill="url(#linearGradient-1)" fill-rule="nonzero"></path>
            </g>
        </g>
    </g>
</svg>