<?xml version="1.0" encoding="UTF-8"?>
<svg width="16px" height="16px" viewBox="0 0 16 16" version="1.1" xmlns="http://www.w3.org/2000/svg" xmlns:xlink="http://www.w3.org/1999/xlink">
    <title>施工电梯</title>
    <defs>
        <linearGradient x1="50%" y1="0%" x2="50%" y2="100%" id="linearGradient-1">
            <stop stop-color="#2177FF" offset="0%"></stop>
            <stop stop-color="#4E92FF" offset="100%"></stop>
        </linearGradient>
    </defs>
    <g id="Page-1" stroke="none" stroke-width="1" fill="none" fill-rule="evenodd">
        <g id="画板" transform="translate(-257, -307)">
            <g id="施工电梯" transform="translate(257, 307)">
                <rect id="矩形" fill="#FFFFFF" x="2" y="2" width="13" height="13"></rect>
                <path d="M2,0 L14,0 C15.1031514,0.00341611319 15.9965839,0.896848599 16,2 L16,14 C15.9965839,15.1031514 15.1031514,15.9965839 14,16 L2,16 C0.896848599,15.9965839 0.00341611319,15.1031514 0,14 L0,2 C0.00341611319,0.896848599 0.896848599,0.00341611319 2,0 L2,0 Z M6.24444444,9.69955556 C6.84444444,9.4 7.24444444,8.69955556 7.24444444,8 L7.24444444,7 C7.24102832,5.8968486 6.34759584,5.00341611 5.24444444,5 C4.14129304,5.00341611 3.24786055,5.8968486 3.24444444,7 L3.24444444,8 C3.24444444,8.69955556 3.64444444,9.4 4.24444444,9.69955556 L4.24444444,12 C4.24444444,12.6 4.64444444,13 5.24444444,13 C5.84444444,13 6.24444444,12.6 6.24444444,12 L6.24444444,9.69955556 L6.24444444,9.69955556 Z M5.24444444,5 C5.84444444,5 6.24444444,4.6 6.24444444,4 C6.24444444,3.4 5.84444444,3 5.24444444,3 C4.64444444,3 4.24444444,3.4 4.24444444,4 C4.24444444,4.6 4.64444444,5 5.24444444,5 Z M12.4106667,3.4 C12.3111111,3.30044444 12.3111111,3.30044444 12.4106667,3.4 C12.2115556,3.30044444 12.1111111,3.30044444 12.0106667,3.4 L10.8106667,5.8 L10.8106667,5.89955556 C10.8106667,6 10.9111111,6.10044444 11.0106667,6.10044444 L13.5111111,6.10044444 C13.6115556,6.10044444 13.6115556,5.89955554 13.6115556,5.8 L12.4115556,3.4 L12.4106667,3.4 Z M12.4106667,12.6 L13.6106667,10.2 C13.6106667,10.1004444 13.6106667,10 13.5111111,9.89955556 L11.0106667,9.89955556 C10.9030662,9.90691228 10.8175462,9.99281241 10.8106667,10.1004444 L10.8106667,10.2 L12.0106667,12.6 C12.0106667,12.7004444 12.2115556,12.8 12.4106667,12.6 C12.3111111,12.7004444 12.3111111,12.7004444 12.4106667,12.6 L12.4106667,12.6 Z" id="形状" fill="url(#linearGradient-1)" fill-rule="nonzero"></path>
            </g>
        </g>
    </g>
</svg>