<?xml version="1.0" encoding="UTF-8"?>
<svg width="14px" height="16px" viewBox="0 0 14 16" version="1.1" xmlns="http://www.w3.org/2000/svg" xmlns:xlink="http://www.w3.org/1999/xlink">
    <title>审批</title>
    <defs>
        <linearGradient x1="50%" y1="0%" x2="50%" y2="100%" id="linearGradient-1">
            <stop stop-color="#2177FF" offset="0%"></stop>
            <stop stop-color="#4E92FF" offset="100%"></stop>
        </linearGradient>
    </defs>
    <g id="Page-1" stroke="none" stroke-width="1" fill="none" fill-rule="evenodd">
        <g id="画板" transform="translate(-370, -235)">
            <g id="审批" transform="translate(370, 235)">
                <circle id="椭圆形" fill="#FFFFFF" cx="7" cy="8" r="5"></circle>
                <path d="M8.19581639,0 C8.39105171,0 8.54764672,0.0582183187 8.6757699,0.180677541 L8.68593841,0.188707654 L13.7864614,4.70966123 C13.863742,4.77992472 13.9166182,4.85621079 13.9511912,4.94052698 C13.9755956,4.99874529 13.9918652,5.06700125 13.9979663,5.13726474 C14,5.15131744 14,5.16537014 14,5.18143036 L14,14.9841907 C14,15.5442911 13.5383498,16 12.9709471,16 L1.02905288,16 C0.461650203,16 0,15.5442911 0,14.9841907 L0,1.01580928 C0,0.455708908 0.461650203,0 1.02905288,0 Z M7,3.43287327 C4.44770482,3.43287327 2.37332946,5.4825596 2.37332946,8 C2.37332946,10.5174404 4.44770482,12.5671267 7,12.5671267 C9.55229518,12.5671267 11.6266705,10.5174404 11.6266705,8 C11.6266705,5.4825596 9.55229518,3.43287327 7,3.43287327 Z M7,4.71568381 C8.83439861,4.71568381 10.3271354,6.18920954 10.3271354,8 C10.3271354,9.81079046 8.83439861,11.2843162 7,11.2843162 C5.16560139,11.2843162 3.67286461,9.81079046 3.67286461,8 C3.67286461,6.18920954 5.16560139,4.71568381 7,4.71568381 Z M6.97762929,5.82584693 C6.6949448,5.82584693 6.46717025,6.05069009 6.46717025,6.32973651 L6.46717025,8.11844417 C6.46717025,8.39749059 6.6949448,8.62233375 6.97762929,8.62233375 L9.00116212,8.62233375 C9.2838466,8.62233375 9.51162115,8.39749059 9.51162115,8.11844417 C9.51162115,7.83939774 9.2838466,7.61254705 9.00116212,7.61254705 L7.48808832,7.61254705 L7.48808832,6.32973651 C7.48808832,6.05069009 7.26031377,5.82584693 6.97762929,5.82584693 Z" id="形状结合" fill="url(#linearGradient-1)" fill-rule="nonzero"></path>
            </g>
        </g>
    </g>
</svg>