<?xml version="1.0" standalone="no"?><!DOCTYPE svg PUBLIC "-//W3C//DTD SVG 1.1//EN" "http://www.w3.org/Graphics/SVG/1.1/DTD/svg11.dtd"><svg t="1754548209122" class="icon" viewBox="0 0 1024 1024" version="1.1" xmlns="http://www.w3.org/2000/svg" p-id="1196" xmlns:xlink="http://www.w3.org/1999/xlink" width="200" height="200"><path d="M512 0C391.355733 116.7872 238.318933 128.3584 114.653867 129.501867c5.461333 104.0384 20.462933 383.266133 27.972267 466.397867l0.802133 8.9088C161.1776 802.013867 170.1888 902.178133 512 1024c341.8112-121.821867 350.805333-221.986133 368.571733-419.191467l0.768-8.9088c7.5264-83.131733 22.528-362.359467 28.0064-466.397867C785.629867 128.3584 632.6272 116.7872 512 0zM750.267733 407.415467 479.112533 675.208533 308.053333 512.477867c-14.779733-14.062933-15.377067-37.4784-1.297067-52.258133 14.062933-14.779733 37.461333-15.377067 52.258133-1.297067l119.1424 113.3568L698.299733 354.816c14.5408-14.336 37.9392-14.199467 52.292267 0.341333C764.928 369.664 764.808533 393.079467 750.267733 407.415467z" p-id="1197"></path></svg>