<?xml version="1.0" standalone="no"?><!DOCTYPE svg PUBLIC "-//W3C//DTD SVG 1.1//EN" "http://www.w3.org/Graphics/SVG/1.1/DTD/svg11.dtd"><svg t="1754548241183" class="icon" viewBox="0 0 1365 1024" version="1.1" xmlns="http://www.w3.org/2000/svg" p-id="1338" xmlns:xlink="http://www.w3.org/1999/xlink" width="266.6015625" height="200"><path d="M1040.25125926-52.74232059H321.62070165c-112.78664651 0-205.02249836 92.23585185-205.02249958 205.02249837v718.63055761c0 111.65392592 90.45586132 203.24250905 201.78615349 205.02249959h725.26506667c111.16847408-1.77999053 201.78615349-93.36857244 201.78615349-205.02249959V152.28017778C1245.27375763 39.49353127 1153.03790578-52.74232059 1040.25125926-52.74232059z m-48.70700206 964.59282964c-52.91425185 0-95.79583169-42.88157984-95.7958329-95.79583291 0-49.19245392 37.21797571-89.16132386 84.95407407-94.66311112-43.69066667-94.50129423-150.32825719-163.11182222-277.51664117-170.71723375v172.65904117c41.74885925 10.35630577 72.81777778 47.73609836 72.81777779 92.7213037 0 52.91425185-42.88157984 95.79583169-95.79583292 95.79583291s-95.79583169-42.88157984-95.79583169-95.79583291c0-44.98520534 31.06891852-82.36499794 72.81777778-92.7213037V550.67433127c-127.02656831 7.44359466-233.82597571 76.21594075-277.51664238 170.55541688 47.89791645 5.17815349 85.43952592 45.47065719 85.43952592 94.82492799 0 52.91425185-42.88157984 95.79583169-95.79583169 95.79583291s-95.79583169-42.88157984-95.79583169-95.79583291c0-42.88157984 28.31802429-78.6432 66.99235555-90.94131317 43.52884978-115.69935762 167.80452386-200.81524978 316.67642429-208.90611319V431.09135762c-77.99593127-11.16539259-138.03014281-77.99593127-138.03014281-159.06638931 0-88.83768889 72.00869095-161.00819794 161.00819672-161.00819794 88.83768889 0 161.00819794 72.00869095 161.00819794 161.00819794 0 81.07045925-60.03421275 147.90099794-138.03014281 159.06638931v85.27770905c148.71008355 8.09086461 272.98575762 93.20675555 316.67642429 208.7442963 38.99796502 12.1362963 67.47780741 48.05973333 67.47780741 91.10313126 0 52.75243498-42.88157984 95.63401482-95.7958317 95.63401482z" p-id="1339"></path></svg>