<?xml version="1.0" encoding="UTF-8"?>
<svg width="18px" height="16px" viewBox="0 0 18 16" version="1.1" xmlns="http://www.w3.org/2000/svg" xmlns:xlink="http://www.w3.org/1999/xlink">
    <title>健康</title>
    <defs>
        <linearGradient x1="50%" y1="0%" x2="50%" y2="100%" id="linearGradient-1">
            <stop stop-color="#2177FF" offset="0%"></stop>
            <stop stop-color="#4E92FF" offset="100%"></stop>
        </linearGradient>
    </defs>
    <g id="Page-1" stroke="none" stroke-width="1" fill="none" fill-rule="evenodd">
        <g id="画板" transform="translate(-114, -235)">
            <g id="健康" transform="translate(114, 235)">
                <rect id="矩形" fill="#FFFFFF" x="3" y="4" width="12" height="10"></rect>
                <path d="M14.7189873,1.57146448 L13.3518987,1.57146448 C13.2835443,2.42562278 12.5772152,3.0747331 11.7227848,3.086121 L6.28860759,3.086121 C5.43417722,3.086121 4.7278481,2.42562278 4.65949367,1.57146448 L3.29240506,1.57146448 C1.48101266,1.56014235 0,3.02918149 0,4.83985765 L0,12.7088968 C0,14.519573 1.46962025,15.9886121 3.28101266,16 L14.7189873,16 C16.5303797,16 18,14.5309609 18,12.7202847 L18,4.85124555 C18,3.0405694 16.5303797,1.57146448 14.7189873,1.57146448 Z M9.69493671,5.23843416 C9.96835443,5.23843416 10.1848101,5.45480427 10.1848101,5.72811388 L10.1848101,7.58434164 L12.0417722,7.58434164 C12.3037975,7.58434164 12.5202532,7.80071174 12.5316456,8.07402135 L12.5544304,9.4975089 C12.5544304,9.77081851 12.3379747,9.98718861 12.064557,9.98718861 L10.1962025,9.98718861 L10.1962025,11.8434164 C10.1962025,12.116726 9.97974684,12.3330961 9.70632911,12.3330961 L8.29367089,12.3330961 C8.02025316,12.3330961 7.80379747,12.116726 7.80379747,11.8548043 L7.80379747,9.98718861 L5.93544304,9.98718861 C5.66202532,9.98718861 5.44556962,9.77081851 5.44556962,9.4975089 L5.44556962,8.07402135 C5.44556962,7.80071174 5.67341772,7.58434164 5.93544304,7.58434164 L7.79240506,7.58434164 L7.79240506,5.72811388 C7.79240506,5.45480427 8.00886076,5.23843416 8.28227848,5.23843416 L9.69493671,5.23843416 Z M11.5177215,0 C11.9734177,0.0113879004 12.3379747,0.387188612 12.3379747,0.842704626 L12.3379747,1.19572954 C12.3493671,1.66263345 11.9734177,2.03843416 11.5177215,2.03843416 L6.47088608,2.03843416 C6.01518987,2.03843416 5.65063291,1.66263345 5.65063291,1.19572954 L5.65063291,0.842704626 C5.63924051,0.375800712 6.01518987,0 6.47088608,0 Z" id="形状" fill="url(#linearGradient-1)" fill-rule="nonzero"></path>
            </g>
        </g>
    </g>
</svg>