<?xml version="1.0" encoding="UTF-8"?>
<svg width="16px" height="16px" viewBox="0 0 16 16" version="1.1" xmlns="http://www.w3.org/2000/svg" xmlns:xlink="http://www.w3.org/1999/xlink">
    <title>合同管理</title>
    <defs>
        <linearGradient x1="50%" y1="0%" x2="50%" y2="100%" id="linearGradient-1">
            <stop stop-color="#2177FF" offset="0%"></stop>
            <stop stop-color="#4E92FF" offset="100%"></stop>
        </linearGradient>
    </defs>
    <g id="Page-1" stroke="none" stroke-width="1" fill="none" fill-rule="evenodd">
        <g id="画板" transform="translate(-288, -272)">
            <g id="合同管理" transform="translate(288, 272)">
                <rect id="矩形" fill="#FFFFFF" x="2" y="2" width="7" height="5"></rect>
                <path d="M12.4587842,5.62388601 C13.26804,5.68586884 13.9573961,6.24784416 14.1956889,7.0398416 C14.4339817,7.83183904 14.1725116,8.6919991 13.5368877,9.20710482 L13.4188471,9.29628359 L13.2268345,9.42000907 L13.2032264,9.65219523 C13.1198111,10.3021558 12.9820972,12.4135233 14.5780051,13.2129185 L14.7432618,13.2884392 L14.840842,13.3278064 L15.7733622,13.3278064 C15.8803856,13.3278064 15.9700964,13.4041306 15.9937045,13.506164 L16,13.5599926 L16,15.7436672 C16,15.9501442 15.9331104,15.992725 15.8426126,15.9991523 L15.8087743,15.9999782 L8.88451702,15.9999782 C8.77556081,16.0015039 8.68128039,15.9228736 8.66102694,15.8135641 L8.65707026,15.7677696 L8.65707026,13.5599926 C8.65557582,13.4487553 8.73259363,13.352501 8.83966162,13.3318235 L8.88451702,13.3278064 L9.92956915,13.3278064 L10.0145583,13.2884392 C11.7891009,12.5549238 11.6403698,10.3174206 11.575841,9.75985247 L11.5703325,9.71164773 L11.5317726,9.46821381 L11.3311037,9.34770196 C10.7348674,8.9857887 10.3667602,8.33253011 10.3600236,7.6243826 C10.3617304,6.57236253 11.1600549,5.70083643 12.1880779,5.62870648 L12.3163486,5.62388601 L12.4579972,5.62388601 L12.4587842,5.62388601 Z M11.8040527,0 C12.2386659,0 12.5909896,0.359699925 12.5909896,0.803412276 L12.5909896,4.25808512 C12.4928494,4.2457233 12.3939622,4.24062172 12.2951013,4.24282028 C11.4448461,4.21492926 10.6194191,4.53782262 10.0051151,5.138625 C9.39239048,5.73777813 9.04324375,6.56458338 9.03718276,7.43076026 C9.04243654,8.45555459 9.51233539,9.42007167 10.3096596,10.0426536 C10.3316939,10.5447863 10.2915601,11.5024537 9.67617548,11.9403134 L9.55420027,12.0158342 L8.53275625,12.0158342 C7.87566397,12.0158342 7.33661225,12.5276078 7.27837891,13.1799786 L7.27365729,13.2964734 L7.27365729,15.2632266 L0.760967938,15.2632266 L0.694865243,15.2592096 C0.298648135,15.2115543 0,14.868731 0,14.4614212 L0,0.803412276 C0,0.359699925 0.352323638,0 0.786936854,0 L11.8040527,0 L11.8040527,0 Z M5.90202636,5.62388598 L2.75427896,5.62388598 C2.56423976,5.62382132 2.40131307,5.76243612 2.36710603,5.95328506 L2.36081052,6.02559216 L2.36081052,6.4272983 C2.36074719,6.62131619 2.49651942,6.78765393 2.68345465,6.82257715 L2.75427896,6.82900446 L5.90202636,6.82900446 C6.09206556,6.82906912 6.25499224,6.69045434 6.28919929,6.49960541 L6.29549478,6.4272983 L6.29549478,6.02559216 C6.29549478,5.91905307 6.2540402,5.81687753 6.18025055,5.74154302 C6.10646091,5.6662085 6.00638068,5.62388598 5.90202636,5.62388598 Z M8.2628369,2.41023684 L2.75427896,2.41023684 C2.56423977,2.41017218 2.40131308,2.54878697 2.36710603,2.7396359 L2.36081052,2.811943 L2.36081052,3.21364914 C2.36074719,3.40766703 2.49651942,3.57400478 2.68345465,3.60892799 L2.75427896,3.61535532 L8.2628369,3.61535532 C8.45287611,3.61541998 8.61580279,3.47680519 8.65000983,3.28595625 L8.65630532,3.21364914 L8.65630532,2.811943 C8.65630532,2.59008683 8.48014351,2.41023684 8.2628369,2.41023684 L8.2628369,2.41023684 Z" id="形状" fill="url(#linearGradient-1)" fill-rule="nonzero"></path>
            </g>
        </g>
    </g>
</svg>