<?xml version="1.0" encoding="UTF-8"?>
<svg width="16px" height="16px" viewBox="0 0 16 16" version="1.1" xmlns="http://www.w3.org/2000/svg" xmlns:xlink="http://www.w3.org/1999/xlink">
    <title>清单</title>
    <defs>
        <linearGradient x1="50%" y1="0%" x2="50%" y2="100%" id="linearGradient-1">
            <stop stop-color="#2177FF" offset="0%"></stop>
            <stop stop-color="#4E92FF" offset="100%"></stop>
        </linearGradient>
    </defs>
    <g id="Page-1" stroke="none" stroke-width="1" fill="none" fill-rule="evenodd">
        <g id="画板" transform="translate(-256, -343)">
            <g id="清单" transform="translate(256, 343)">
                <rect id="矩形" fill="#FFFFFF" x="1" y="5" width="14" height="9"></rect>
                <path d="M15.2932258,1.40420272 C15.6845237,1.40420272 16.0106053,1.71075402 15.9997359,2.05686032 L15.9997359,15.3374536 C15.9997359,15.92089 15.6301768,16 15.3149646,16 L0.717379462,16 C0.315212188,16 0,15.7033375 0,15.3473424 L0,2.06674907 C0,1.70086527 0.326081574,1.41409147 0.717379462,1.41409147 L3.36950959,1.41409147 L3.36950959,2.74907293 C3.36950959,3.05562423 3.65211362,3.31273177 3.98906458,3.31273177 L12.0215407,3.31273177 C12.3584916,3.31273177 12.6410957,3.06551298 12.6410957,2.74907293 L12.6410957,1.40420272 Z M6.74988857,10.1755253 C6.53250086,9.97775031 6.20641928,9.97775031 5.98903157,10.1755253 L4.24992984,11.7577256 L3.57602792,11.144623 C3.35864021,10.946848 3.03255863,10.946848 2.81517092,11.144623 C2.5977832,11.342398 2.5977832,11.6390606 2.81517092,11.8368356 L3.86950134,12.7960445 C4.08688906,12.9938195 4.41297063,12.9938195 4.63035835,12.7960445 L6.76075796,10.8677379 C6.86945182,10.7688504 6.91292936,10.6501854 6.91292936,10.5216316 C6.91292936,10.3930779 6.85858243,10.2744129 6.74988857,10.1755253 Z M12.2824059,11.1149567 L7.98899855,11.1149567 C7.69552514,11.1149567 7.45639865,11.381953 7.45639865,11.6489493 C7.45639865,11.9159456 7.69552514,12.1829419 7.98899855,12.1829419 L12.2932753,12.1829419 C12.5867487,12.1829419 12.8150058,11.9159456 12.8150058,11.6489493 C12.8150058,11.381953 12.5758794,11.1149567 12.2824059,11.1149567 Z M6.74988857,5.80469716 C6.53250086,5.60692213 6.20641928,5.60692213 5.98903157,5.80469716 L4.24992984,7.3868974 L3.57602792,6.77379481 C3.35864021,6.57601978 3.03255863,6.57601978 2.81517092,6.77379481 C2.5977832,6.97156984 2.5977832,7.26823239 2.81517092,7.46600742 L3.86950134,8.42521632 C4.08688906,8.62299135 4.41297063,8.62299135 4.63035835,8.42521632 L6.76075796,6.49690977 C6.86945182,6.39802225 6.91292936,6.27935723 6.91292936,6.15080346 C6.91292936,6.02224969 6.85858243,5.90358467 6.74988857,5.80469716 Z M12.2824059,6.82323857 L7.98899855,6.82323857 C7.69552514,6.82323857 7.45639865,7.09023486 7.45639865,7.35723115 C7.45639865,7.62422744 7.69552514,7.89122373 7.98899855,7.89122373 L12.2932753,7.89122373 C12.5867487,7.89122373 12.8150058,7.62422744 12.8150058,7.35723115 C12.8150058,7.09023486 12.5758794,6.82323857 12.2824059,6.82323857 Z M11.2172061,0 C11.4563326,0 11.662851,0.187886279 11.662851,0.405438813 L11.662851,2.06674907 C11.662851,2.28430161 11.4563326,2.47218789 11.2172061,2.47218789 L4.79339913,2.47218789 L4.79339913,2.49196539 C4.55427265,2.49196539 4.34775432,2.30407911 4.34775432,2.08652658 L4.34775432,0.405438813 C4.34775432,0.187886279 4.55427265,0 4.79339913,0 L11.2172061,0 Z" id="形状结合" fill="url(#linearGradient-1)" fill-rule="nonzero"></path>
            </g>
        </g>
    </g>
</svg>