<?xml version="1.0" encoding="UTF-8"?>
<svg width="18px" height="16px" viewBox="0 0 18 16" version="1.1" xmlns="http://www.w3.org/2000/svg" xmlns:xlink="http://www.w3.org/1999/xlink">
    <title>危险作业管理</title>
    <defs>
        <linearGradient x1="50%" y1="0%" x2="50%" y2="100%" id="linearGradient-1">
            <stop stop-color="#2177FF" offset="0%"></stop>
            <stop stop-color="#4E92FF" offset="100%"></stop>
        </linearGradient>
    </defs>
    <g id="Page-1" stroke="none" stroke-width="1" fill="none" fill-rule="evenodd">
        <g id="画板" transform="translate(-184, -272)">
            <g id="危险作业管理" transform="translate(184, 272)">
                <rect id="矩形" fill="#FFFFFF" x="7" y="4" width="3" height="10"></rect>
                <path d="M15.2401033,9.92643348 L17.0889665,11.005816 L14.5258474,15.4925933 L13.1588506,15.9899728 C13.1115546,16.0070128 13.0592369,16.0021661 13.015794,15.9767198 C12.9723512,15.9512736 12.9421806,15.9078036 12.9332962,15.8578563 L12.6769842,14.4132108 L15.2401033,9.92643348 L15.2401033,9.92643348 Z M9.97283429,0.78363172 C11.3569186,3.28866269 12.7777409,5.83255143 14.2139419,8.3937103 L10.1317477,15.5426766 L1.53931833,15.5426766 C0.322691171,15.5426766 -0.389855919,14.1973343 0.225292628,13.1516285 C2.56029406,9.00075502 4.89614987,4.94832128 7.23200569,0.78363172 C7.84715425,-0.261210573 9.35768574,-0.261210573 9.97368866,0.78363172 L9.97283429,0.78363172 Z M8.54603137,11.7061194 C8.0419513,11.7061194 7.63697849,12.1206023 7.63697849,12.6361154 C7.63697849,13.0505983 8.0419513,13.4668082 8.54603137,13.4668082 C9.05011144,13.4668082 9.45508424,13.0514618 9.45508424,12.5368122 C9.35683134,12.1206023 8.95185853,11.7061194 8.54603137,11.7061194 Z M8.44777846,4.33350498 C8.04195128,4.33350498 7.63612411,4.74885138 7.63612411,5.26350097 L7.94540714,10.2459307 C8.04195128,10.9755933 9.04925706,10.9755933 9.04925708,10.2459307 L9.35683136,5.26350097 C9.35683136,4.74885138 8.95185855,4.33350498 8.44777846,4.33350498 L8.44777846,4.33350498 Z M16.6763043,8.27281945 L17.7869892,8.92044896 C17.990989,9.03997337 18.0605874,9.30395066 17.9424851,9.51022359 L17.5152986,10.2580198 L15.665581,9.17863728 L16.0927676,8.43084105 C16.2107353,8.22434733 16.4719894,8.15359977 16.6763043,8.27281945 L16.6763043,8.27281945 Z" id="形状" fill="url(#linearGradient-1)" fill-rule="nonzero"></path>
            </g>
        </g>
    </g>
</svg>