<?xml version="1.0" encoding="UTF-8"?>
<svg width="14px" height="16px" viewBox="0 0 14 16" version="1.1" xmlns="http://www.w3.org/2000/svg" xmlns:xlink="http://www.w3.org/1999/xlink">
    <title>维修台账</title>
    <defs>
        <linearGradient x1="50%" y1="0%" x2="50%" y2="100%" id="linearGradient-1">
            <stop stop-color="#2177FF" offset="0%"></stop>
            <stop stop-color="#4E92FF" offset="100%"></stop>
        </linearGradient>
    </defs>
    <g id="Page-1" stroke="none" stroke-width="1" fill="none" fill-rule="evenodd">
        <g id="画板" transform="translate(-293, -307)">
            <g id="维修台账" transform="translate(293, 307)">
                <rect id="矩形" fill="#FFFFFF" x="1" y="5" width="10" height="10"></rect>
                <path d="M9.058,0 L9.058,3.95789473 C9.05811063,4.38510672 9.3905967,4.74454867 9.8315,4.79410526 L9.933875,4.8 L14,4.8 L14,15.1578947 C14,15.6229766 13.6082492,16 13.125,16 L0.874999987,16 C0.391750843,16 0,15.6229766 0,15.1578947 L0,0.842105251 C0,0.377023367 0.391750843,0 0.874999987,0 L9.058,0 L9.058,0 Z M5.501125,5.47361983 C5.15287501,5.47361983 4.80462499,5.62273684 4.550875,5.86189473 L4.456375,5.95115789 C4.377625,6.01094736 4.32949999,6.25010527 4.409125,6.32505263 L5.81787499,7.65389474 C6.181,7.99663157 6.16525,8.65431579 5.627125,9.16126315 C5.089,9.66905263 4.424875,9.7136842 4.029375,9.34063157 L2.62062499,8.01178947 C2.55674998,7.9376842 2.303875,7.98231579 2.225125,8.05642106 L2.146375,8.14652632 C1.892625,8.38484211 1.74999999,8.71410526 1.74999999,9.04252631 C1.74999999,9.35578947 1.876875,9.63957895 2.09824999,9.84842105 L3.633,11.2968421 C3.94975,11.5957895 4.88425,12.1473684 6.13375,11.5654737 L8.302,13.536 C8.80716874,14.0136304 9.61683127,14.0136304 10.122,13.536 C10.3659441,13.3111238 10.5025757,12.9992827 10.4996416,12.6741988 C10.4966119,12.3491148 10.3542813,12.0396438 10.10625,11.8189474 L8.03250001,9.83326315 C8.808625,8.60884211 8.38162501,7.7136842 7.87500001,7.23536843 L6.35512501,5.80210526 C6.12661545,5.58850441 5.81966041,5.47045933 5.501125,5.47361983 Z M7.51099999,11.0728421 C7.62124999,10.9532632 7.811125,10.9532632 7.93800001,11.0576842 L9.457,12.4311579 C9.58387501,12.536421 9.58387501,12.7149474 9.47362501,12.8353684 C9.3625,12.9541053 9.17262502,12.9541053 9.04575001,12.8496842 L7.52674999,11.4762105 C7.39987499,11.3717895 7.39987499,11.192421 7.51099999,11.072 L7.51099999,11.0728421 Z M9.625,8.8817842e-16 L14,4.21052631 L10.5,4.21052631 C10.2679356,4.21052631 10.0453759,4.12180476 9.88128157,3.96387939 C9.71718724,3.80595402 9.625,3.59176125 9.625,3.36842104 L9.625,8.8817842e-16 L9.625,8.8817842e-16 Z" id="形状" fill="url(#linearGradient-1)" fill-rule="nonzero"></path>
            </g>
        </g>
    </g>
</svg>