<?xml version="1.0" encoding="UTF-8"?>
<svg width="18px" height="16px" viewBox="0 0 18 16" version="1.1" xmlns="http://www.w3.org/2000/svg" xmlns:xlink="http://www.w3.org/1999/xlink">
    <title>电梯</title>
    <defs>
        <linearGradient x1="50%" y1="0%" x2="50%" y2="100%" id="linearGradient-1">
            <stop stop-color="#2177FF" offset="0%"></stop>
            <stop stop-color="#4E92FF" offset="100%"></stop>
        </linearGradient>
    </defs>
    <g id="Page-1" stroke="none" stroke-width="1" fill="none" fill-rule="evenodd">
        <g id="画板" transform="translate(-260, -235)">
            <g id="电梯" transform="translate(260, 235)">
                <rect id="矩形" fill="#FFFFFF" x="2" y="1" width="14" height="14"></rect>
                <path d="M16.677,0 L16.677,14.5173333 L18,14.5173333 L18,16 L2.99760216e-16,16 L2.99760216e-16,14.5173333 L1.4094,14.5173333 L1.4094,0 L16.677,0 Z M7.97039999,10.8791111 L7.3989,10.8791111 L5.7438,14.5164444 L6.3324,14.5164444 L6.31980001,14.5102222 L7.97039999,10.8791111 Z M5.77710001,10.8791111 L5.2299,10.8791111 L3.5748,14.5164444 L4.14090001,14.5164444 L4.1265,14.5102222 L5.77710001,10.8791111 L5.77710001,10.8791111 Z M10.1286,10.8791111 L9.59220001,10.8791111 L7.93710001,14.5164444 L8.48609999,14.5164444 L8.47710001,14.5128889 L10.1286,10.8791111 L10.1286,10.8791111 Z M12.2985,10.8791111 L11.7504,10.8791111 L10.0962,14.5164444 L10.6542,14.5164444 L10.6461,14.5128889 L12.2985,10.8791111 Z M14.4918,10.8791111 L13.9203,10.8791111 L12.2661,14.5164444 L12.8475,14.5164444 L12.8394,14.5128889 L14.4918,10.8791111 Z M15.2019,12.8835556 L14.4594,14.5164444 L15.2028,14.5164444 L15.2019,12.8835556 L15.2019,12.8835556 Z M3.6072,10.8791111 L2.8836,10.8791111 L2.8836,12.4702222 L3.6072,10.8791111 Z M8.26199999,1.48266667 L2.8836,1.48266667 L2.8836,9.39644444 L8.26199999,9.39644444 L8.26199999,1.48266667 Z M15.2019,1.48266667 L9.7371,1.48266667 L9.7371,9.39644444 L15.2019,9.39644444 L15.2019,1.48266667 Z" id="形状" fill="url(#linearGradient-1)" fill-rule="nonzero"></path>
            </g>
        </g>
    </g>
</svg>