<?xml version="1.0" encoding="UTF-8"?>
<svg width="16px" height="16px" viewBox="0 0 16 16" version="1.1" xmlns="http://www.w3.org/2000/svg" xmlns:xlink="http://www.w3.org/1999/xlink">
    <title>锁定</title>
    <defs>
        <linearGradient x1="50%" y1="0%" x2="50%" y2="100%" id="linearGradient-1">
            <stop stop-color="#2177FF" offset="0%"></stop>
            <stop stop-color="#4E92FF" offset="100%"></stop>
        </linearGradient>
    </defs>
    <g id="Page-1" stroke="none" stroke-width="1" fill="none" fill-rule="evenodd">
        <g id="画板" transform="translate(-184, -343)">
            <g id="锁定" transform="translate(184, 343)">
                <rect id="矩形" fill="#FFFFFF" x="6" y="8" width="4" height="5"></rect>
                <path d="M8,0 C10.3830303,0 12.32,1.80114286 12.3629091,4.03885714 L12.3636364,4.11428571 L12.3636364,5.48571429 L14.5454545,5.48571429 C15.3487778,5.48571429 16,6.09972377 16,6.85714286 L16,14.6285714 C16,15.3859905 15.3487778,16 14.5454545,16 L1.45454545,16 C0.651222182,16 0,15.3859905 0,14.6285714 L0,6.85714286 C0,6.09972377 0.651222182,5.48571429 1.45454545,5.48571429 L3.63636364,5.48571429 L3.63636364,4.11428571 C3.63636364,1.84205714 5.59006061,0 8,0 L8,0 Z M8,8.68571429 C7.61489512,8.68571429 7.29653221,8.96872651 7.27393939,9.3312 L7.27272727,9.37142857 L7.27272727,10.9714286 L7.27393939,11.0116571 C7.29617877,11.3743891 7.61464205,11.6577982 8,11.6577982 C8.38535795,11.6577982 8.70382123,11.3743891 8.72606061,11.0116571 L8.72727273,10.9714286 L8.72727273,9.37142857 L8.72606061,9.3312 C8.70346779,8.96872651 8.38510488,8.68571429 8,8.68571429 Z M8,1.37142857 C6.41818182,1.37142857 5.13115152,2.56205714 5.09187879,4.04457143 L5.09090909,4.11428571 L5.09090909,5.48571429 L10.9090909,5.48571429 L10.9090909,4.11428571 C10.9090909,2.59954286 9.60654545,1.37142857 8,1.37142857 L8,1.37142857 Z" id="形状" fill="url(#linearGradient-1)" fill-rule="nonzero"></path>
                <path d="M6.54545455,11.4285714 C6.54545455,11.9185357 6.82268932,12.3712813 7.27272726,12.6162634 C7.7227652,12.8612456 8.2772348,12.8612456 8.72727274,12.6162634 C9.17731068,12.3712813 9.45454545,11.9185357 9.45454545,11.4285714 C9.45454545,10.6711523 8.80332327,10.0571429 8,10.0571429 C7.19667673,10.0571429 6.54545455,10.6711523 6.54545455,11.4285714 L6.54545455,11.4285714 Z" id="路径" fill="#FFFFFF" fill-rule="nonzero"></path>
            </g>
        </g>
    </g>
</svg>