<?xml version="1.0" encoding="UTF-8"?>
<svg width="18px" height="16.000002px" viewBox="0 0 18 16.000002" version="1.1" xmlns="http://www.w3.org/2000/svg" xmlns:xlink="http://www.w3.org/1999/xlink">
    <title>物流</title>
    <defs>
        <linearGradient x1="50%" y1="0%" x2="50%" y2="100%" id="linearGradient-1">
            <stop stop-color="#2177FF" offset="0%"></stop>
            <stop stop-color="#4E92FF" offset="100%"></stop>
        </linearGradient>
    </defs>
    <g id="Page-1" stroke="none" stroke-width="1" fill="none" fill-rule="evenodd">
        <g id="画板" transform="translate(-222, -235)">
            <g id="物流" transform="translate(222, 235)">
                <polygon id="矩形" fill="#FFFFFF" points="4 1 14 1 15.7385499 7 2.30589102 6.80053967"></polygon>
                <rect id="矩形" fill="#FFFFFF" x="2" y="8" width="14" height="5"></rect>
                <path d="M17.53026,4.70000497 L15.8440026,4.70000497 C15.7670964,4.70148856 15.691064,4.72473143 15.624208,4.7667664 L14.8643216,2.18087352 C14.6218047,0.710638378 13.70461,0 12.5785449,0 L5.43718593,0 C4.14376229,0 3.35896876,0.952463128 3.15097225,2.17938993 L2.38890103,4.77368981 C2.31825237,4.72607246 2.23778083,4.70031987 2.15556041,4.69901591 L0.469740004,4.69901591 C0.34531332,4.69875338 0.225897029,4.75447505 0.137791071,4.85390893 C0.0496851128,4.95334282 0,5.08833356 0,5.22915115 L0,5.68906325 C0,5.98132998 0.210181341,6.21969302 0.469740004,6.21969302 L1.10771248,6.34332531 C0.893468375,6.82247336 0.785062953,7.35326278 0.791785012,7.89021247 L0.555385624,10.9414573 C0.555385624,11.0294835 0.561066201,11.1194878 0.570679484,11.2104811 C0.561230509,11.2675772 0.556113908,11.3254833 0.555385624,11.3835663 L0.555385624,15.0544562 C0.555385624,15.5771735 0.930303692,16 1.39305222,16 L2.671182,16 C2.89314865,16.000521 3.10619576,15.9011653 3.26339591,15.7238138 C3.42059607,15.5464622 3.5090541,15.3056629 3.50928556,15.0544562 L3.50928556,13.8754987 L14.5060083,13.8754987 L14.5060083,15.0544562 C14.5060083,15.5771735 14.8809264,16 15.3436749,16 L16.6226786,16 C16.8445696,16.0003896 17.0575044,15.9009759 17.21461,15.7236386 C17.3717156,15.5463012 17.4601136,15.305577 17.4603452,15.0544562 L17.4603452,11.3830718 C17.4603452,11.3252119 17.4546646,11.267352 17.4446144,11.2104811 C17.4542277,11.1194878 17.4603452,11.0294835 17.4603452,10.9409627 L17.2235088,7.88971794 C17.2235088,7.29578844 17.1081494,6.78691795 16.9062705,6.34085266 L17.529823,6.22117661 C17.654401,6.2215708 17.773996,6.1658394 17.8622092,6.06628425 C17.9504223,5.96672911 18,5.83153603 18,5.69054684 L18,5.23063474 C17.9987993,4.93756194 17.7887854,4.70054556 17.529823,4.70000497 L17.53026,4.70000497 Z M3.71378632,4.1575065 L4.27179375,2.48006365 L4.27878523,2.44050132 C4.3342801,2.10224338 4.45794188,2.04092177 4.64146821,1.77981038 L13.3799432,1.77981038 C13.5652174,2.04883424 13.6805768,2.11707926 13.7308281,2.43802867 L14.2984488,4.15899009 L14.5064453,5.09365017 C14.4592528,5.77758397 13.7308281,6.31760979 13.1265021,6.31760979 L4.88573301,6.31760979 C4.28009613,6.31760979 3.5516714,5.77758397 3.50491588,5.09315564 L3.71378632,4.1575065 L3.71378632,4.1575065 Z M4.10443522,12.1352506 C3.64292153,12.127715 3.22152845,11.8367861 3.00443271,11.3758111 C2.78733697,10.9148361 2.80887796,10.3567304 3.06066321,9.91893463 C3.31244845,9.48113882 3.75465151,9.23290178 4.21498798,9.27093783 C4.89860663,9.32742294 5.41862643,9.98885809 5.38871437,10.76385 C5.35880231,11.5388419 4.78980208,12.1464414 4.10443522,12.1352506 L4.10443522,12.1352506 Z M11.1924842,11.0784418 C11.1917619,11.3138387 11.0229429,11.5042314 10.8149443,11.5042314 L7.2549705,11.5042314 C7.04714167,11.5042314 6.8783928,11.31414 6.87743063,11.0789364 L6.87743063,9.88168132 C6.87743063,9.64628545 7.046974,9.45589173 7.2549705,9.45589173 L10.8149443,9.45589173 C11.0229408,9.45589173 11.1924842,9.64628545 11.1924842,9.88118679 L11.1924842,11.0784418 L11.1924842,11.0784418 Z M13.9077999,12.1352528 C13.5716403,12.1359069 13.249025,11.9853723 13.0109554,11.7167766 C12.7728859,11.4481809 12.6388726,11.0835363 12.6384094,10.7030942 C12.6388726,10.3226522 12.7728859,9.95800761 13.0109554,9.68941188 C13.249025,9.42081616 13.5716403,9.27028154 13.9077999,9.2709357 C14.2438838,9.27041284 14.5663868,9.42100546 14.8043618,9.68958697 C15.0423368,9.95816847 15.1762901,10.322738 15.1767533,10.7030942 C15.1753069,11.4949183 14.6074594,12.135798 13.9077999,12.1352528 L13.9077999,12.1352528 Z" id="形状" fill="url(#linearGradient-1)" fill-rule="nonzero"></path>
            </g>
        </g>
    </g>
</svg>