<?xml version="1.0" encoding="UTF-8"?>
<svg width="16px" height="16px" viewBox="0 0 16 16" version="1.1" xmlns="http://www.w3.org/2000/svg" xmlns:xlink="http://www.w3.org/1999/xlink">
    <title>关键资料管理</title>
    <defs>
        <linearGradient x1="50%" y1="0%" x2="50%" y2="100%" id="linearGradient-1">
            <stop stop-color="#2177FF" offset="0%"></stop>
            <stop stop-color="#4E92FF" offset="100%"></stop>
        </linearGradient>
    </defs>
    <g id="Page-1" stroke="none" stroke-width="1" fill="none" fill-rule="evenodd">
        <g id="画板" transform="translate(-324, -272)">
            <g id="关键资料管理" transform="translate(324, 272)">
                <rect id="矩形" fill="#FFFFFF" x="2" y="2" width="8" height="2"></rect>
                <ellipse id="椭圆形" fill="#FFFFFF" cx="12" cy="12" rx="3" ry="2"></ellipse>
                <rect id="矩形备份" fill="#FFFFFF" x="2" y="5.5" width="6" height="2"></rect>
                <path d="M13.320564,0 C13.8110136,0 14.2086016,0.377023367 14.2086016,0.842105251 L14.2086016,6.98105262 L14.102037,6.97599999 L9.48868173,6.9936842 C9.18674894,6.99536841 8.89902475,7.13515789 8.71076079,7.36757894 L8.64504601,7.46021053 L6.18074168,11.3482105 C6.02332435,11.5934239 5.99070826,11.8928174 6.09193791,12.1633684 L6.1434441,12.2728421 L8.21168365,16 L0.888037584,16 C0.397587974,16 0,15.6229766 0,15.1578947 L0,0.842105251 C0,0.377023367 0.397587974,0 0.888037584,0 L13.320564,0 L13.320564,0 Z M13.5629982,8.29473684 C13.8186025,8.29346657 14.055121,8.42282461 14.1819604,8.63326315 L15.9047534,11.4922105 C16.0326308,11.7027369 16.0317427,11.9637895 15.9020893,12.176 L14.1526552,15.0501053 C14.0244078,15.2611076 13.7878459,15.3918577 13.5310289,15.3936842 L10.0570258,15.4080093 C9.80142154,15.4092703 9.56490302,15.2799122 9.43806358,15.0694737 L7.71438261,12.2096842 C7.58728375,11.9977466 7.58829786,11.737777 7.71704672,11.5267368 L9.46648078,8.65263159 C9.59466294,8.44104686 9.83167735,8.30991293 10.0889951,8.30821053 L13.5629982,8.29389474 L13.5629982,8.29473684 Z M12.7255788,10.3461053 L10.9068778,10.3545263 L9.99219904,11.8576842 L10.8935572,13.3549474 L12.7122582,13.3465263 L13.6269369,11.8433684 L12.7255788,10.3461053 L12.7255788,10.3461053 Z M6.66028198,5.89473681 L3.10813159,5.89473681 C2.89367733,5.89466904 2.70981883,6.03995963 2.67121709,6.24000001 L2.66411277,6.31578948 L2.66411277,6.7368421 C2.6640413,6.94020405 2.8172567,7.11455275 3.0282082,7.15115789 L3.10813159,7.15789475 L6.66028198,7.15789475 C6.87473623,7.15796253 7.05859473,7.01267195 7.09719648,6.81263158 L7.10430078,6.7368421 L7.10430078,6.31578948 C7.10430078,6.20411938 7.05752037,6.09702299 6.97425069,6.0180603 C6.89098101,5.93909761 6.77804309,5.89473681 6.66028198,5.89473681 Z M9.32439478,2.52631577 L3.10813159,2.52631577 C2.89367734,2.52624799 2.70981884,2.67153858 2.67121709,2.87157894 L2.66411277,2.94736842 L2.66411277,3.36842104 C2.6640413,3.57178299 2.8172567,3.74613169 3.0282082,3.78273683 L3.10813159,3.78947371 L9.32439478,3.78947371 C9.53884903,3.78954149 9.72270753,3.64425089 9.76130928,3.44421052 L9.76841357,3.36842104 L9.76841357,2.94736842 C9.76841357,2.83569832 9.72163315,2.72860193 9.63836348,2.64963925 C9.5550938,2.57067657 9.44215588,2.52631577 9.32439478,2.52631577 Z" id="形状" fill="url(#linearGradient-1)" fill-rule="nonzero"></path>
            </g>
        </g>
    </g>
</svg>