<?xml version="1.0" encoding="UTF-8"?>
<svg width="18px" height="16px" viewBox="0 0 18 16" version="1.1" xmlns="http://www.w3.org/2000/svg" xmlns:xlink="http://www.w3.org/1999/xlink">
    <title>理财</title>
    <defs>
        <linearGradient x1="50%" y1="0%" x2="50%" y2="100%" id="linearGradient-1">
            <stop stop-color="#2177FF" offset="0%"></stop>
            <stop stop-color="#4E92FF" offset="100%"></stop>
        </linearGradient>
    </defs>
    <g id="Page-1" stroke="none" stroke-width="1" fill="none" fill-rule="evenodd">
        <g id="画板" transform="translate(-40, -343)">
            <g id="理财" transform="translate(40, 343)">
                <rect id="矩形" fill="#FFFFFF" x="4" y="2" width="10" height="7"></rect>
                <path d="M11.5766464,1.00665985 L7.62394959,1.00665985 C5.69700988,-0.161853632 4.1860915,-0.316828895 3.24436148,0.561364264 L3.19594094,0.613022685 C2.70975923,1.19882918 2.86094989,2.173107 3.26017227,3.00997343 C2.6408105,3.67450091 2.15348488,4.4607199 1.82633148,5.32323752 L1.18599459,5.32323752 C0.519272748,5.33624435 -0.0113807154,5.91140312 0.000185538207,6.60849904 L0.000185538207,8.81637996 C-0.0113807154,9.51347588 0.519272748,10.0886347 1.18599459,10.1016415 L1.64648378,10.1016415 C2.15430056,11.8335817 3.28604678,13.2913768 4.80271221,14.1671592 L4.80271221,14.9399692 C4.79688924,15.2148795 4.89612374,15.4808753 5.07844269,15.6790584 C5.26076163,15.8772416 5.51112193,15.9912601 5.77408747,15.9958673 L7.40358674,15.9958673 C7.94586024,15.9862463 8.37937888,15.521461 8.37496199,14.9544336 L11.7446361,14.9544336 C11.7380312,15.5230657 12.1721808,15.9903745 12.7160113,16 L14.3435342,16 C14.6064998,15.9953928 14.8568601,15.8813743 15.039179,15.6831911 C15.221498,15.4850079 15.3207325,15.2190121 15.3149095,14.9441019 L15.3149095,13.6454092 C17.0163788,12.3068675 18.012021,10.2057579 17.9998904,7.97951354 C17.9998904,4.13406067 15.1182628,1.00665985 11.5766464,1.00665985 Z M5.70689162,7.04552928 C5.33307452,7.06028041 4.98816078,6.83615244 4.83531678,6.47917232 C4.68247278,6.12219221 4.75234213,5.70393067 5.01187212,5.42225234 C5.27140212,5.14057401 5.66855976,5.05195239 6.01546391,5.19831122 C6.36236807,5.34467004 6.58946815,5.69666593 6.58933119,6.08778216 C6.59382841,6.33714678 6.50337418,6.57816157 6.3378758,6.75778361 C6.17237743,6.93740565 5.94539804,7.04091432 5.70689162,7.04552928 L5.70689162,7.04552928 Z M11.5450249,4.72606617 L8.6506626,4.72606617 C8.25968422,4.71099064 7.95017032,4.37522936 7.95017032,3.9661708 C7.95017032,3.55711224 8.25968422,3.22135096 8.6506626,3.20627543 L11.5450249,3.20627543 C11.9360032,3.22135096 12.2455171,3.55711224 12.2455171,3.9661708 C12.2455171,4.37522936 11.9360032,4.71099064 11.5450249,4.72606617 Z" id="形状" fill="url(#linearGradient-1)" fill-rule="nonzero"></path>
            </g>
        </g>
    </g>
</svg>