<?xml version="1.0" encoding="UTF-8"?>
<svg width="14px" height="16px" viewBox="0 0 14 16" version="1.1" xmlns="http://www.w3.org/2000/svg" xmlns:xlink="http://www.w3.org/1999/xlink">
    <title>笔记</title>
    <defs>
        <linearGradient x1="50%" y1="0%" x2="50%" y2="100%" id="linearGradient-1">
            <stop stop-color="#2177FF" offset="0%"></stop>
            <stop stop-color="#4E92FF" offset="100%"></stop>
        </linearGradient>
    </defs>
    <g id="Page-1" stroke="none" stroke-width="1" fill="none" fill-rule="evenodd">
        <g id="画板" transform="translate(-78, -271)">
            <g id="笔记" transform="translate(78, 271)">
                <polygon id="矩形" fill="#FFFFFF" points="1.09157454 0.783998766 13.1236027 0.783998766 13.34774 15.3907454 0.718925274 15.3907454"></polygon>
                <path d="M13.6579368,0 L1.7438518,0 C0.780261897,0 0,0.793260599 0,1.77434056 L0,14.2256594 C0,15.2067394 0.780261897,16 1.7438518,16 L13.5327371,16 C13.7920792,16 14,15.7922939 14,15.5381853 L14,0.338074852 C14,0.152465129 13.8457362,0 13.6579368,0 Z M1.99872245,0.976660682 L5.45289045,0.976660682 L5.45289045,7.47521061 L4.01756627,6.41679326 L3.77387416,6.23560282 L3.52571064,6.41016434 L1.99872245,7.49288772 L1.99872245,0.976660682 Z M13.1236027,15.1095153 L1.7416161,15.1095153 C1.7416161,15.1095153 0.854040243,14.9548405 0.871925902,14.2190305 C0.871925902,13.774893 1.2631747,13.3307554 1.7416161,13.3307554 L13.1236027,13.3307554 L13.1236027,15.1095153 Z" id="形状" fill="url(#linearGradient-1)" fill-rule="nonzero"></path>
            </g>
        </g>
    </g>
</svg>