<?xml version="1.0" encoding="UTF-8"?>
<svg width="16px" height="16px" viewBox="0 0 16 16" version="1.1" xmlns="http://www.w3.org/2000/svg" xmlns:xlink="http://www.w3.org/1999/xlink">
    <title>smls icon_程序设置</title>
    <defs>
        <linearGradient x1="50%" y1="0%" x2="50%" y2="100%" id="linearGradient-1">
            <stop stop-color="#2177FF" offset="0%"></stop>
            <stop stop-color="#4E92FF" offset="100%"></stop>
        </linearGradient>
    </defs>
    <g id="Page-1" stroke="none" stroke-width="1" fill="none" fill-rule="evenodd">
        <g id="画板" transform="translate(-328, -343)">
            <g id="smls-icon_程序设置" transform="translate(328, 343)">
                <rect id="矩形" fill="#FFFFFF" x="1" y="2" width="7" height="6"></rect>
                <path d="M12.5361256,14.5444654 C12.8082435,14.5212318 13.0700503,14.6537517 13.2117252,14.8864367 C13.3511347,15.1215419 13.3511347,15.4100802 13.2117252,15.6451854 C13.0723158,15.8802907 12.8149445,16.0192165 12.5361256,15.9978433 L2.41285566,15.9978433 C2.03752256,15.9764701 1.73725608,15.655872 1.73725608,15.2711544 C1.73725608,14.8864367 2.02679876,14.5765252 2.41285566,14.5444654 Z M11.0347932,8.00426495 C12.0213831,7.41650183 13.2867918,7.55542766 14.1339723,8.34623621 C14.9704289,9.14773137 15.184905,10.3980638 14.6487148,11.4239776 L15.7318189,12.514011 C15.9512481,12.7048077 16.0462634,13.0012152 15.9784664,13.2834464 C15.9141236,13.5719846 15.6889237,13.7857167 15.4101048,13.8605229 C15.131286,13.9246425 14.8310195,13.8284631 14.637991,13.614731 L13.5548869,12.5246976 C12.5254018,13.0483411 11.2707169,12.8452957 10.4771555,12.0010541 C9.68359406,11.1568126 9.54418462,9.89579351 10.1339938,8.90193952 L11.7425642,10.5049298 C11.7747356,10.5476762 11.8283546,10.5690494 11.8819737,10.5690494 C11.9355927,10.5690494 11.9892117,10.5476762 12.0213831,10.5049298 L12.6433637,9.90648011 C12.7184303,9.8316739 12.7184303,9.70343467 12.6433637,9.62862846 Z M12.5790209,0 C13.5119917,0 14.2626579,0.748062145 14.2626579,1.67779652 L14.2626579,6.76461911 C13.3618585,6.31578182 12.2894782,6.15548279 11.1313075,6.56157367 C9.80155589,7.03178416 8.761347,8.18593718 8.47180432,9.56450885 C8.21443305,10.8255279 8.56831855,12.0010541 9.26536574,12.8773555 L1.68363706,12.8773555 C0.750666206,12.8773555 0,12.1292933 0,11.199559 L0,1.67779652 C0,0.748062145 0.750666206,0 1.68363706,0 Z M5.73723457,5.98449716 L2.60588412,5.98449716 C2.16620819,5.98449716 1.8230465,6.33715502 1.8230465,6.76461911 C1.8230465,7.19208319 2.16620819,7.54474106 2.60588412,7.54474106 L5.73723457,7.54474106 C6.16618669,7.54474106 6.52007219,7.19208319 6.52007219,6.76461911 C6.52007219,6.33715502 6.1769105,5.98449716 5.73723457,5.98449716 Z M7.09915755,2.21212663 L2.62733172,2.21212663 C2.1983796,2.21212663 1.84449411,2.55409789 1.84449411,2.99224858 C1.84449411,3.41971266 2.1876558,3.77237053 2.62733172,3.77237053 L7.09915755,3.77237053 C7.53883347,3.77237053 7.88199516,3.41971266 7.88199516,2.99224858 C7.88199516,2.5647845 7.53883347,2.21212663 7.09915755,2.21212663 Z" id="形状结合" fill="url(#linearGradient-1)" fill-rule="nonzero"></path>
            </g>
        </g>
    </g>
</svg>