<?xml version="1.0" encoding="UTF-8"?>
<svg width="16px" height="16px" viewBox="0 0 16 16" version="1.1" xmlns="http://www.w3.org/2000/svg" xmlns:xlink="http://www.w3.org/1999/xlink">
    <title>people</title>
    <defs>
        <linearGradient x1="50%" y1="0%" x2="50%" y2="100%" id="linearGradient-1">
            <stop stop-color="#2177FF" offset="0%"></stop>
            <stop stop-color="#4E92FF" offset="100%"></stop>
        </linearGradient>
    </defs>
    <g id="Page-1" stroke="none" stroke-width="1" fill="none" fill-rule="evenodd">
        <g id="画板" transform="translate(-186, -235)">
            <g id="people" transform="translate(186, 235)">
                <circle id="椭圆形" fill="#FFFFFF" cx="8" cy="9" r="7"></circle>
                <path d="M14,9.31887704 C14,9.14550243 13.9318886,9.0216634 13.7957263,8.94736 L11.7709585,7.98141572 C12.0062527,7.83280891 12.1951072,7.6222826 12.337522,7.34983677 C12.4798762,7.07739095 12.5511443,6.76779343 12.5511443,6.42104421 C12.5511443,5.93807207 12.4056335,5.5232114 12.1145511,5.17646216 C11.8235294,4.82971294 11.467553,4.65633833 11.0465003,4.65633833 C10.8978935,4.65633833 10.7585746,4.68110612 10.6285133,4.73064173 C10.4985431,4.78017735 10.3777393,4.84209683 10.2662842,4.91640024 C10.4025071,5.28791728 10.4706186,5.66562626 10.4706186,6.04952717 C10.4706186,6.65633833 10.3095672,7.20742191 9.98764646,7.70277795 C10.049566,7.76469746 10.1083895,7.82042501 10.1640563,7.86996062 C10.2197839,7.91949623 10.2786074,7.96283989 10.3405269,7.99999158 L11.6594124,8.61299467 C11.8451102,8.71206588 11.9937777,8.85138477 12.1052328,9.03095132 C12.2166879,9.21051787 12.2724155,9.41175628 12.2724155,9.63472719 L12.2724155,11.3436752 L13.6656043,11.3436752 C13.7646755,11.3436752 13.8451709,11.3034275 13.9070904,11.2229018 C13.9690099,11.1424671 14,11.0464919 14,10.9350368 L14,9.31887704 L14,9.31887704 Z M11.6408972,9.6346665 C11.6408972,9.41169557 11.5541796,9.26314946 11.380805,9.18884608 L9.61609909,8.33435692 L8.87306503,7.98147645 C9.03411646,7.88240525 9.17962729,7.75547025 9.30965825,7.6006715 C9.4396285,7.44587275 9.54804835,7.26940215 9.63473565,7.07125973 C9.69662481,6.92265291 9.74922603,6.7616622 9.79256968,6.58828759 C9.83597404,6.41491298 9.85764585,6.23534641 9.85764585,6.0495879 C9.85764585,5.9505167 9.85145389,5.85454145 9.83907,5.76166221 C9.8266861,5.66878297 9.80811024,5.57280772 9.78334245,5.47373652 C9.67188735,5.00314828 9.4520731,4.61924737 9.12389972,4.32203374 C8.79572633,4.02482011 8.4149214,3.87621331 7.98148485,3.87621331 C7.54804833,3.87621331 7.17033935,4.02172415 6.84835792,4.31274582 C6.5263765,4.60376749 6.30965824,4.97218855 6.19820314,5.41800897 C6.13628363,5.64091919 6.10532387,5.8514455 6.10532387,6.04958792 C6.10532387,6.42110496 6.18581922,6.78023808 6.34680993,7.1269873 C6.53256844,7.49850434 6.78643841,7.78952601 7.10841984,8.00005231 L6.40253748,8.33441763 L4.58210405,9.17033095 C4.39634554,9.25701826 4.30346628,9.41181701 4.30346628,9.63475759 L4.30346628,11.3437056 L4.30346628,11.6409192 C4.30346628,11.7771421 4.34371395,11.8916932 4.42420932,11.9845724 C4.50470466,12.0774517 4.60687184,12.1238913 4.73071086,12.1238913 L11.2322589,12.1238913 C11.343714,12.1238913 11.4396892,12.0774517 11.5201238,11.9845724 C11.6006192,11.8916325 11.6408972,11.7771421 11.6408972,11.6409192 L11.6408972,11.3437056 L11.6408972,9.6346665 L11.6408972,9.6346665 Z M3.69040247,9.6346665 C3.69040247,9.41169557 3.74613002,9.21045718 3.85758515,9.03089064 C3.96904027,8.85132409 4.11764706,8.71200519 4.30340557,8.61293399 L5.67801857,7.98135504 C5.8018576,7.90705163 5.9009288,7.82036432 5.97523221,7.72129312 C5.81424149,7.485999 5.6904025,7.22593708 5.60371517,6.94110735 C5.51702786,6.65627764 5.47368421,6.35906401 5.47368421,6.04946648 C5.47368421,5.83894016 5.49535605,5.63770177 5.5386997,5.4457513 C5.58204335,5.25380084 5.63467492,5.07113831 5.69659443,4.8977637 C5.47368421,4.73677299 5.22600619,4.65627764 4.95356038,4.65627764 C4.53250775,4.65627764 4.17647059,4.82965225 3.88544892,5.17640147 C3.59442725,5.52315069 3.44891641,5.93801138 3.44891641,6.42098352 C3.44891641,6.76773274 3.52321982,7.08042625 3.67182664,7.35906402 C3.82043345,7.6377018 4.01857586,7.85132408 4.26625388,7.99993089 L2.20433437,8.94729931 C2.06811145,9.00921882 2,9.13305782 2,9.31881635 L2,10.9349154 C2,11.0463705 2.03095976,11.1423458 2.09287927,11.2227804 C2.15479878,11.3032757 2.23529412,11.3435538 2.33436532,11.3435538 L3.69040247,11.3435538 L3.69040247,9.6346665 L3.69040247,9.6346665 Z M8,2.87351841e-16 C9.09866667,2.87351841e-16 10.136,0.210666662 11.112,0.632000005 C12.088,1.05333333 12.936,1.624 13.656,2.34400001 C14.376,3.06400001 14.9466667,3.912 15.368,4.88800001 C15.7893333,5.86400002 16,6.90133333 16,8 C16,8.73599999 15.904,9.44533333 15.712,10.128 C15.5199477,10.8106144 15.2506667,11.4479477 14.904,12.04 C14.5573333,12.632 14.1413333,13.1706667 13.656,13.656 C13.1707189,14.1413333 12.632,14.5573856 12.04,14.904 C11.4479477,15.2506667 10.8106667,15.52 10.1279739,15.712 C9.44533333,15.904 8.73599999,16 8,16 C7.26400001,16 6.55466667,15.904 5.872,15.712 C5.18933332,15.5199477 4.552,15.2506667 3.96,14.904 C3.368,14.5573333 2.82933333,14.1413333 2.34400001,13.656 C1.85866668,13.1707189 1.44266668,12.632 1.096,12.04 C0.749333345,11.4479477 0.480000003,10.8106667 0.287999998,10.128 C0.0960000128,9.44533333 2.87351841e-16,8.73599999 2.87351841e-16,8 C2.87351841e-16,7.26400001 0.0959999926,6.55466667 0.287999998,5.872 C0.480000003,5.18933332 0.749333325,4.552 1.096,3.96 C1.44266666,3.368 1.85866666,2.82933333 2.34400001,2.34400001 C2.82933333,1.85866668 3.36800002,1.44266668 3.96,1.096 C4.552,0.749333345 5.18933332,0.480000003 5.872,0.287999998 C6.55466667,0.0960000128 7.26400001,2.87351841e-16 8,2.87351841e-16 Z" id="形状" fill="url(#linearGradient-1)" fill-rule="nonzero"></path>
            </g>
        </g>
    </g>
</svg>