<?xml version="1.0" encoding="UTF-8"?>
<svg width="16px" height="16px" viewBox="0 0 16 16" version="1.1" xmlns="http://www.w3.org/2000/svg" xmlns:xlink="http://www.w3.org/1999/xlink">
    <title>科普</title>
    <defs>
        <linearGradient x1="50%" y1="0%" x2="50%" y2="100%" id="linearGradient-1">
            <stop stop-color="#2177FF" offset="0%"></stop>
            <stop stop-color="#4E92FF" offset="100%"></stop>
        </linearGradient>
    </defs>
    <g id="Page-1" stroke="none" stroke-width="1" fill="none" fill-rule="evenodd">
        <g id="画板" transform="translate(-148, -271)">
            <g id="科普" transform="translate(148, 271)">
                <circle id="椭圆形" fill="#FFFFFF" cx="8" cy="8" r="3"></circle>
                <path d="M4.79838308,4.805158 C8.86153985,0.73989464 13.072987,-1.24822686 15.1589385,0.838806157 C17.2448901,2.92583917 15.2577988,7.12957865 11.194642,11.194842 C7.13148526,15.2601054 2.91015207,17.2482269 0.834086569,15.1611938 C-1.24197893,13.0741608 0.735226307,8.87042135 4.79838308,4.805158 Z M14.8030416,9.34519663 C16.1771992,11.7388553 16.463894,13.865453 15.1589385,15.1611938 C13.8539831,16.4569347 11.7383735,16.1799825 9.34595513,14.8051124 C10.3741019,14.0237114 11.3429324,13.1730723 12.2524468,12.2531952 C13.1718473,11.3432093 14.0220455,10.3738764 14.8030416,9.34519663 Z M8.00145557,5.96242275 C7.01285295,5.98220505 6.2021988,6.78338834 6.18242675,7.78239466 C6.15276867,8.81107444 6.97330884,9.66171349 8.00145557,9.69138694 C8.99994422,9.67160464 9.80071234,8.87042135 9.82048439,7.87141503 C9.85014247,6.84273525 9.02960229,5.9920962 8.00145557,5.96242275 Z M6.656956,1.19488762 C5.62880928,1.9762886 4.65997871,2.82692765 3.7504643,3.74680476 C2.83106386,4.65679072 1.98086561,5.62612359 1.19986954,6.65480337 C-0.174288104,4.26114465 -0.460982864,2.13454703 0.843972595,0.838806157 C2.14892805,-0.456934718 4.26453766,-0.17998247 6.656956,1.19488762 Z" id="形状结合" fill="url(#linearGradient-1)" fill-rule="nonzero"></path>
            </g>
        </g>
    </g>
</svg>