<?xml version="1.0" encoding="UTF-8"?>
<svg width="15.9998625px" height="16px" viewBox="0 0 15.9998625 16" version="1.1" xmlns="http://www.w3.org/2000/svg" xmlns:xlink="http://www.w3.org/1999/xlink">
    <title>专家答疑</title>
    <defs>
        <linearGradient x1="50%" y1="0%" x2="50%" y2="100%" id="linearGradient-1">
            <stop stop-color="#2177FF" offset="0%"></stop>
            <stop stop-color="#4E92FF" offset="100%"></stop>
        </linearGradient>
    </defs>
    <g id="Page-1" stroke="none" stroke-width="1" fill="none" fill-rule="evenodd">
        <g id="画板" transform="translate(-78, -343)">
            <g id="专家答疑" transform="translate(78, 343)">
                <rect id="矩形" fill="#FFFFFF" x="4" y="4" width="6" height="9"></rect>
                <path d="M12.5998917,2.79997593 C12.9312597,2.79997593 13.1998865,3.06860277 13.1998865,3.39997077 L13.1998865,13.7998814 C13.1998865,14.1312494 12.9312597,14.3998762 12.5998917,14.3998762 L7.14073863,14.3998762 L4.06836502,15.936663 C3.89074177,16.0254694 3.68068412,16.0206352 3.50733434,15.9237515 C3.33398456,15.8268677 3.21980262,15.6504873 3.20237248,15.4526672 L3.1999725,15.3998676 L3.1999725,14.3998762 L0.599994843,14.3998762 C0.290948732,14.3998614 0.032468396,14.1650996 0.00279996968,13.8574809 L0,13.7998814 L0,3.39997077 C0,3.06860277 0.268626841,2.79997593 0.599994843,2.79997593 L12.5998917,2.79997593 Z M7.19993811,10.9999054 L5.99994843,10.9999054 L5.99994843,12.1998951 L7.19993811,12.1998951 L7.19993811,10.9999054 Z M6.59994327,5.19995431 C5.38492727,5.19995431 4.39996219,6.18492038 4.39996219,7.39993638 L5.59995187,7.39993638 L5.60195184,7.33433696 C5.63762079,6.79177442 6.10027407,6.37713939 6.6434884,6.40090029 C7.18670273,6.42466119 7.61138492,6.87810942 7.59954349,7.42171421 C7.58770206,7.965319 7.14367701,8.39984406 6.59994327,8.3999278 L6.54234377,8.40272777 C6.23472504,8.4323962 5.99996326,8.69087653 5.99994843,8.99992264 L5.99994843,10.3331112 L7.19993811,10.3331112 L7.19993811,9.5171182 L7.27913743,9.4931184 C8.30964325,9.15975821 8.94420923,8.12594518 8.7749662,7.05616574 C8.60572316,5.98638631 7.68302693,5.19893788 6.59994327,5.19995431 Z M15.3998676,0 C15.7089137,0 15.9673941,0.234776608 15.9970625,0.542395338 L15.9998625,0.599994843 L15.9998625,8.99992264 C15.9998625,9.30896875 15.7650859,9.56744907 15.4574671,9.5971175 L15.3998676,9.59991748 L14.2714773,9.59991748 L14.2714773,2.87797526 C14.2708168,2.21538346 13.7340789,1.67828773 13.0714876,1.67718557 L5.1999553,1.67278562 L3.99996561,1.67278562 L3.99996561,0.599994843 C3.99996561,0.290948732 4.23474222,0.032468396 4.54236095,0.00279996968 L4.59996046,0 L15.3998676,0 Z" id="形状结合" fill="url(#linearGradient-1)" fill-rule="nonzero"></path>
            </g>
        </g>
    </g>
</svg>