<?xml version="1.0" encoding="UTF-8"?>
<svg width="18px" height="16px" viewBox="0 0 18 16" version="1.1" xmlns="http://www.w3.org/2000/svg" xmlns:xlink="http://www.w3.org/1999/xlink">
    <title>随机测量</title>
    <defs>
        <linearGradient x1="50%" y1="0%" x2="50%" y2="100%" id="linearGradient-1">
            <stop stop-color="#2177FF" offset="0%"></stop>
            <stop stop-color="#4E92FF" offset="100%"></stop>
        </linearGradient>
    </defs>
    <g id="Page-1" stroke="none" stroke-width="1" fill="none" fill-rule="evenodd">
        <g id="画板" transform="translate(-149, -307)">
            <g id="随机测量" transform="translate(149, 307)">
                <rect id="矩形" fill="#FFFFFF" x="3" y="4" width="12" height="10"></rect>
                <path d="M17.1,2.66666667 C17.5970563,2.66666667 18,3.06463578 18,3.55555556 L18,15.1111111 C18,15.6020309 17.5970563,16 17.1,16 L0.900000006,16 C0.402943728,16 0,15.6020309 0,15.1111111 L0,3.55555556 C0,3.06463578 0.402943728,2.66666667 0.900000006,2.66666667 L17.1,2.66666667 Z M8.91450001,9.72177777 C8.65620001,10.3217778 8.42850001,10.7768889 8.2305,11.088 C8.32050001,11.2177778 8.41589999,11.3324444 8.51220001,11.4346667 C8.6085,11.536 8.70210001,11.624 8.78849999,11.7013333 C8.87669999,11.7777778 8.97479999,11.8435556 9.08549999,11.9004444 C9.19619999,11.9582222 9.2943,12.0071111 9.37709999,12.0444444 C9.4617,12.0835555 9.56789999,12.1137778 9.69480001,12.1377778 C9.918,12.1848889 10.1448,12.2106667 10.3725,12.216 C10.5228,12.2213333 10.6443,12.2231111 10.7388,12.2213333 C10.8333,12.2186667 10.9683,12.2186667 11.1465,12.216 L11.5722,12.2142222 L11.5722,13.1742222 C11.5722,13.2168889 11.5893,13.2568889 11.6199,13.2862222 C11.6491475,13.3166762 11.6899027,13.3337431 11.7324,13.3333333 C11.7750757,13.3347217 11.8164368,13.3186389 11.8467,13.2888889 L13.455,11.6853333 C13.4852619,11.6551704 13.5015486,11.6139911 13.5,11.5715556 C13.5022745,11.5297847 13.4858146,11.4891431 13.455,11.4604444 L11.853,9.8648889 C11.8202946,9.83419956 11.7774681,9.81620725 11.7324,9.81422223 C11.6893783,9.81236519 11.6475562,9.8285003 11.6172,9.85866667 C11.5869381,9.88882965 11.5706514,9.93000888 11.5722,9.97244444 L11.5722,10.9324444 L10.287,10.9324444 C10.1469067,10.9342283 10.0077122,10.9101097 9.87659999,10.8613333 C9.76222875,10.8200048 9.65528005,10.7608889 9.55980001,10.6862222 C9.46216682,10.6030604 9.37620799,10.5074012 9.30419999,10.4017778 C9.23039321,10.2998743 9.16248464,10.1939271 9.10080001,10.0844444 L9.0054,9.904 L8.91450001,9.72177777 L8.91450001,9.72177777 Z M11.7315,5.33333333 C11.6574017,5.32977516 11.5913952,5.37923084 11.5749,5.45066667 L11.5713,5.49333333 L11.5713,6.45333333 L10.2852,6.45333333 C9.8739528,6.45084876 9.46883334,6.55179596 9.108,6.74666667 C8.94161341,6.83963832 8.78898013,6.95479374 8.6544,7.0888889 C8.5086,7.23377779 8.3844,7.37066667 8.28270001,7.5048889 C8.16390001,7.664 8.0577,7.83111113 7.96140001,8.00444444 C7.86465621,8.17579191 7.77459024,8.35073486 7.69140001,8.5288889 C7.62210002,8.68 7.53840002,8.86666667 7.4421,9.08622223 C7.2882,9.4488889 7.15769999,9.73511113 7.0506,9.94044444 C6.98277627,10.0740293 6.90735579,10.203718 6.82470001,10.3288889 C6.75000002,10.4391111 6.6645,10.5422222 6.56909999,10.6364444 C6.4701,10.7342222 6.3531,10.8106667 6.22260001,10.8604444 C6.08271556,10.9118742 5.93445469,10.9374845 5.78520001,10.936 L4.6602,10.936 C4.617197,10.9342537 4.5754184,10.9503719 4.545,10.9804444 C4.51436402,11.0110947 4.49805548,11.0529735 4.50000001,11.096 L4.50000001,12.056 C4.4984514,12.0984356 4.5147381,12.1396148 4.545,12.1697778 C4.57514141,12.1997112 4.61658681,12.2158269 4.65930001,12.2142222 L5.7843,12.2142222 C6.19630035,12.2181993 6.60237651,12.1171682 6.96329999,11.9208889 C7.12913346,11.8275448 7.28116158,11.7120899 7.4151,11.5777778 C7.5609,11.4337778 7.6851,11.296 7.78860001,11.1617778 C7.88940001,11.0302222 7.99740001,10.8631111 8.10809999,10.6622222 C8.2197,10.4622222 8.31059999,10.2871111 8.37990001,10.1377778 C8.44830001,9.98666667 8.53110001,9.8 8.62830001,9.58044444 C8.78220001,9.21777777 8.91270001,8.93333333 9.01980001,8.72622223 C9.0999,8.57244446 9.17460001,8.44355556 9.24479999,8.33777777 C9.32026949,8.22748561 9.40615355,8.1245066 9.50129999,8.03022223 C9.60029999,7.93155556 9.71729999,7.856 9.8478,7.80622223 C9.97919999,7.75644446 10.1241,7.73066667 10.2852,7.73066667 L11.5722,7.73066667 L11.5722,8.69066667 C11.5722,8.73333333 11.5893,8.77422223 11.6199,8.80355556 C11.6493029,8.83368229 11.6900378,8.8504188 11.7324,8.84977777 C11.7750757,8.85116618 11.8164368,8.83508331 11.8467,8.80533333 L13.455,7.20266667 C13.4852619,7.17250368 13.5015486,7.13132445 13.5,7.0888889 C13.5020551,7.04689317 13.4856514,7.0060661 13.455,6.9768889 L11.8512,5.384 C11.8187256,5.35350634 11.7762538,5.33552884 11.7315,5.33333333 L11.7315,5.33333333 Z M5.7861,6.4488889 L4.66200001,6.4488889 C4.61897835,6.44703186 4.57715615,6.46316696 4.5468,6.49333333 C4.51630482,6.52371018 4.49999901,6.56525981 4.5018,6.608 L4.5018,7.568 C4.49974435,7.61104433 4.51606947,7.65296562 4.5468,7.68355556 C4.57715615,7.71372194 4.61897835,7.72985704 4.66200001,7.728 L5.787,7.728 C6.04980001,7.7271111 6.3054,7.81422223 6.5133,7.9751111 C6.59790001,8.04355554 6.6834,8.13866667 6.76889999,8.25866667 C6.85439999,8.37866667 6.92189999,8.48533333 6.9723,8.5768889 C7.0236,8.66933333 7.08390001,8.79022223 7.1586,8.93955556 C7.41600001,8.336 7.6446,7.8808889 7.84530001,7.57422223 C7.3098,6.82311113 6.62220001,6.44711113 5.787,6.4488889 L5.7861,6.4488889 Z M15.1983,0 C15.6953563,0 16.0983,0.397969114 16.0983,0.888888896 L16.0983,1.77777777 L1.6983,1.77777777 L1.6983,0.888888896 C1.6983,0.397969114 2.10124373,0 2.59830001,0 L15.1983,0 Z" id="形状" fill="url(#linearGradient-1)" fill-rule="nonzero"></path>
            </g>
        </g>
    </g>
</svg>