<?xml version="1.0" encoding="UTF-8"?>
<svg width="14px" height="16px" viewBox="0 0 14 16" version="1.1" xmlns="http://www.w3.org/2000/svg" xmlns:xlink="http://www.w3.org/1999/xlink">
    <title>工人履历</title>
    <defs>
        <linearGradient x1="50%" y1="0%" x2="50%" y2="100%" id="linearGradient-1">
            <stop stop-color="#2177FF" offset="0%"></stop>
            <stop stop-color="#4E92FF" offset="100%"></stop>
        </linearGradient>
    </defs>
    <g id="Page-1" stroke="none" stroke-width="1" fill="none" fill-rule="evenodd">
        <g id="画板" transform="translate(-152, -235)">
            <g id="工人履历" transform="translate(152, 235)">
                <rect id="矩形" fill="#FFFFFF" x="1" y="2" width="12" height="12"></rect>
                <path d="M10.6505,0 C11.1144654,0 11.5594945,0.17706781 11.88775,0.492631646 L13.48725,2.03115796 C13.8154614,2.34693519 14,2.77525089 14,3.22189478 L14,15.1578948 C14,15.6229766 13.6082492,16 13.125,16 L0.874999987,16 C0.391750843,16 0,15.6229766 0,15.1578948 L0,0.842105316 C0,0.377023435 0.391750843,0 0.874999987,0 L10.6505,0 L10.6505,0 Z M10.4785801,11.9335901 L3.52141986,11.9335901 C3.38962317,11.9335901 3.26322453,11.9839778 3.1700302,12.0736686 C3.07683586,12.1633594 3.02447983,12.2850062 3.02447983,12.4118481 L3.02447983,12.8901062 C3.02447983,13.0169481 3.07683586,13.1385949 3.1700302,13.2282857 C3.26322453,13.3179765 3.38962317,13.3683643 3.52141986,13.3683643 L10.4785801,13.3683643 C10.6103768,13.3683643 10.7367755,13.3179765 10.8299698,13.2282857 C10.9231641,13.1385949 10.9755202,13.0169481 10.9755202,12.8901062 L10.9755202,12.4118481 C10.9755202,12.2850062 10.9231641,12.1633594 10.8299698,12.0736686 C10.7367755,11.9839778 10.6103768,11.9335901 10.4785801,11.9335901 L10.4785801,11.9335901 Z M5.67317015,8.10752557 L5.41277357,8.10752557 C4.17579967,8.35312662 3.02761662,8.90728503 2.08327544,9.71447266 C2.0305998,9.76421151 2.0305998,9.81490685 2.0305998,9.8646457 L2.0305998,10.5179462 C2.0305998,10.6183804 2.13495721,10.7188146 2.23931461,10.7188146 L11.7606854,10.7188146 C11.8650428,10.7188146 11.9694002,10.6183804 11.9694002,10.5179462 L11.9694002,9.81490685 C11.9694002,9.76421151 11.9694002,9.71447266 11.9177184,9.66377731 C10.9804896,8.91099911 9.88821541,8.3581328 8.69158384,8.10752557 L8.37851162,8.10752557 C7.96306976,8.25769861 7.4939584,8.3581328 7.02683476,8.3581328 C6.50604163,8.3581328 6.03693024,8.25769861 5.67317015,8.10752557 L5.67317015,8.10752557 Z M8.93806608,5.88840817 L5.06193392,5.88840817 L5.0678972,6.03188559 C5.14541984,6.97883656 5.98027908,7.72491913 7,7.72491913 C8.0704088,7.72491913 8.93806608,6.90231527 8.93806608,5.88840817 L8.93806608,5.88840817 Z M8.28210525,2.7472092 L8.09525581,3.98494108 L8.08134148,4.0279843 C8.03761076,4.15615746 7.98195346,4.24320043 7.91337577,4.29006973 C7.79907955,4.36850406 7.73845289,4.40867774 7.5873831,4.40867771 L6.36192901,4.40867771 L6.3221738,4.40006907 C6.24827571,4.38879386 6.17717898,4.36447256 6.11246513,4.32833036 L6.08761812,4.30728702 C5.98722249,4.22399219 5.91923182,4.11032482 5.8948054,3.98494108 C5.87095228,3.86346352 5.8053562,3.45598765 5.69801715,2.76060044 C5.04801961,3.21207606 4.6743207,4.00981051 4.6743207,4.91945732 C4.60499421,4.92021405 4.53882002,4.94744653 4.49035801,4.99516298 C4.44189599,5.04287943 4.41511659,5.10717049 4.41589468,5.17389063 C4.41589468,5.31545502 4.53120198,5.42928043 4.6743207,5.42928043 L9.3256793,5.42928043 L9.35251406,5.42832391 C9.48604049,5.41314275 9.58603521,5.30327731 9.58411605,5.17389063 C9.58488341,5.10717049 9.55810401,5.04287943 9.50964199,4.99516298 C9.46117998,4.94744653 9.39500579,4.92021405 9.3256793,4.91945732 C9.3256793,4.00120184 8.94402936,3.19581527 8.28210525,2.7472092 L8.28210525,2.7472092 Z M7,2.36842882 C6.67003183,2.36842882 6.36888618,2.42964586 6.10053857,2.54060172 L6.16315301,2.54060172 L6.40367198,3.89885463 L7.58638922,3.89885463 L7.83982863,2.54060172 L7.89946143,2.54060172 C7.6149924,2.42473398 7.30888776,2.36614011 7,2.36842882 Z" id="形状" fill="url(#linearGradient-1)" fill-rule="nonzero"></path>
            </g>
        </g>
    </g>
</svg>