<?xml version="1.0" encoding="UTF-8"?>
<svg width="16px" height="16px" viewBox="0 0 16 16" version="1.1" xmlns="http://www.w3.org/2000/svg" xmlns:xlink="http://www.w3.org/1999/xlink">
    <title>安全教育记录</title>
    <defs>
        <linearGradient x1="50%" y1="0%" x2="50%" y2="100%" id="linearGradient-1">
            <stop stop-color="#2177FF" offset="0%"></stop>
            <stop stop-color="#4E92FF" offset="100%"></stop>
        </linearGradient>
    </defs>
    <g id="Page-1" stroke="none" stroke-width="1" fill="none" fill-rule="evenodd">
        <g id="画板" transform="translate(-187, -307)">
            <g id="安全教育记录" transform="translate(187, 307)">
                <circle id="椭圆形" fill="#FFFFFF" cx="6.5" cy="6.5" r="4.5"></circle>
                <path d="M13.1537588,10.8931513 L14.6656458,12.3606224 L11.0372881,15.8815572 L9.58868141,15.9994197 C9.53852243,16.0034988 9.48905904,15.9859244 9.45346701,15.951378 C9.41787499,15.9168316 9.39976871,15.8688213 9.40397124,15.8201359 L9.52625621,14.414086 L13.1537588,10.8931513 L13.1537588,10.8931513 Z M12.8270955,0 C13.2993761,0 13.6822351,0.371611558 13.6822351,0.83001763 L13.6822351,8.68530441 L9.11236861,13.1209186 L1.28270955,13.1209186 L1.28270955,13.515177 C1.28270955,14.0463882 1.70343828,14.4821475 2.24217628,14.5352686 L2.35163416,14.5402487 L7.65093485,14.5394187 L6.3827627,15.7703349 L2.35163416,15.7703349 C1.10056479,15.7703349 0.0786728454,14.834075 0.0042756918,13.6521299 L0,13.515177 L0,0.83001763 C0,0.371611558 0.382859074,0 0.855139683,0 L12.8270955,0 L12.8270955,0 Z M14.9683652,9.71950638 L15.8748133,10.599325 C16.0417289,10.7613859 16.0417289,11.0240866 15.8748133,11.1861475 L15.2702296,11.77297 L13.7583426,10.3063288 L14.3629263,9.71950638 C14.4431421,9.64145011 14.5520599,9.59758195 14.6656458,9.59758195 C14.7792317,9.59758195 14.8881495,9.64145011 14.9683652,9.71950638 L14.9683652,9.71950638 Z M9.47238241,7.21700324 L4.20985273,7.21700324 C4.20985273,8.66040388 5.3942212,9.84068894 6.84111757,9.84068894 C8.28801393,9.84068894 9.47238241,8.66040388 9.47238241,7.21700324 L9.47238241,7.21700324 Z M6.84111757,3.28022965 C6.57773455,3.28022965 6.31520665,3.30679021 6.05182363,3.38564188 L6.05182363,5.11705865 L5.52591272,5.11705865 L5.52591272,3.59480632 C4.57841793,4.06791637 3.94646971,5.03903699 3.94646969,6.16703094 L3.42055877,6.16703094 L3.42055877,6.69160209 L10.2616764,6.69160209 L10.2616764,6.16703094 L9.73576545,6.16703094 C9.73576545,5.03820696 9.10381721,4.06708634 8.15632241,3.59480632 L8.15632241,5.11705865 L7.6304115,5.11705865 L7.6304115,3.3864719 C7.37434245,3.31261014 7.10823104,3.27679044 6.84111757,3.28022965 Z" id="形状" fill="url(#linearGradient-1)" fill-rule="nonzero"></path>
            </g>
        </g>
    </g>
</svg>