<?xml version="1.0" encoding="UTF-8"?>
<svg width="16px" height="16px" viewBox="0 0 16 16" version="1.1" xmlns="http://www.w3.org/2000/svg" xmlns:xlink="http://www.w3.org/1999/xlink">
    <title>保存</title>
    <defs>
        <linearGradient x1="50%" y1="0%" x2="50%" y2="100%" id="linearGradient-1">
            <stop stop-color="#2177FF" offset="0%"></stop>
            <stop stop-color="#4E92FF" offset="100%"></stop>
        </linearGradient>
    </defs>
    <g id="Page-1" stroke="none" stroke-width="1" fill="none" fill-rule="evenodd">
        <g id="画板" transform="translate(-334, -235)">
            <g id="保存" transform="translate(334, 235)">
                <rect id="矩形" fill="#FFFFFF" x="5" y="2" width="6" height="4"></rect>
                <path d="M2.18648464,0 C2.18430034,0.0257441673 2.18211604,0.0493429874 2.18211604,0.0750871547 L2.18211604,6.70421024 C2.18211604,7.58809332 2.91385666,8.30678466 3.8137884,8.30678466 L12.181843,8.30678466 C13.0817747,8.30678466 13.8135154,7.58809332 13.8135154,6.70421024 L13.8135154,2.52936444 L15.78157,3.7801019 C16,3.91525878 15.9978157,4.05899705 15.9978157,4.32931081 L16,15.1096809 C16,15.6009654 15.5937201,16 15.0935154,16 L0.906484642,16 C0.406279863,16 0,15.6009654 0,15.1096809 L0,0.89031912 C0,0.399034594 0.406279863,0 0.906484642,0 Z M9.09979522,0.00214534728 C9.65242321,0.00214534728 9.87959044,0.0643604183 10.2050512,0.233842853 L12.4111945,1.63689997 L12.4111945,6.70635559 C12.4111945,6.82864039 12.3107167,6.92947171 12.1840273,6.92947171 L3.8137884,6.92947171 C3.68709898,6.92947171 3.58443686,6.82864039 3.58658694,6.70635559 L3.58658694,0.077232502 C3.58658694,0.0514883347 3.59098976,0.0257441673 3.59972696,0.00214534728 Z M9.79877133,4.36792706 L5.55249147,4.36792706 C5.26197952,4.36792706 5.02607509,4.59962456 5.02607509,4.88495575 C5.02607509,5.17028694 5.26197952,5.40198445 5.55249147,5.40198445 L9.79877133,5.40198445 C10.0892833,5.40198445 10.3251877,5.17028694 10.3251877,4.88495575 C10.3251877,4.59962456 10.0892833,4.36792706 9.79877133,4.36792706 Z M9.79877133,2.20327165 L5.55249147,2.20327165 C5.26197952,2.20327165 5.02607509,2.43496916 5.02607509,2.72030035 C5.02607509,3.00563154 5.26197952,3.23732904 5.55249147,3.23732904 L9.79877133,3.23732904 C10.0892833,3.23732904 10.3251877,3.00563154 10.3251877,2.72030035 C10.3251877,2.43496916 10.0892833,2.20327165 9.79877133,2.20327165 Z" id="形状结合" fill="url(#linearGradient-1)" fill-rule="nonzero"></path>
            </g>
        </g>
    </g>
</svg>