<?xml version="1.0" encoding="UTF-8"?>
<svg width="16px" height="16px" viewBox="0 0 16 16" version="1.1" xmlns="http://www.w3.org/2000/svg" xmlns:xlink="http://www.w3.org/1999/xlink">
    <title>查询</title>
    <defs>
        <linearGradient x1="50%" y1="0%" x2="50%" y2="100%" id="linearGradient-1">
            <stop stop-color="#2177FF" offset="0%"></stop>
            <stop stop-color="#4E92FF" offset="100%"></stop>
        </linearGradient>
    </defs>
    <g id="Page-1" stroke="none" stroke-width="1" fill="none" fill-rule="evenodd">
        <g id="画板" transform="translate(-364, -343)">
            <g id="查询" transform="translate(364, 343)">
                <ellipse id="椭圆形" fill="#FFFFFF" cx="9.5" cy="9.5" rx="6.5" ry="5.5"></ellipse>
                <path d="M3.54697865,0 L4.30346158,2.10366399 C4.5388976,2.75603217 5.19889036,3.19571046 5.94186467,3.19571046 L10.0349777,3.19571046 C10.777952,3.19571046 11.4379448,2.75603217 11.6733808,2.10366399 L12.4298637,0 L14.8498372,0 C15.4847425,0 16,0.475424486 16,1.06523682 L16,14.9347632 C16,15.5227882 15.4866723,16 14.8498372,16 L1.15016283,16 C0.515257508,16 0,15.5245755 0,14.9347632 L0,1.06523682 C0,0.477211796 0.513327705,0 1.15016283,0 L3.54697865,0 Z M4.75696538,0 L11.2160174,0 L10.5791822,1.76586238 C10.5019901,1.98391421 10.2800627,2.13047364 10.0330479,2.13047364 L5.93993487,2.13047364 C5.69099023,2.13047364 5.47292245,1.98391421 5.3918707,1.76586238 L4.75696538,0 L4.75696538,0 Z" id="形状" fill="url(#linearGradient-1)" fill-rule="nonzero"></path>
                <path d="M4.53200636,7.10509777 C5.49874629,5.22481613 7.80828247,4.48921327 9.68672968,5.45778761 C11.5670113,6.42452754 12.3026142,8.73406372 11.3340398,10.6125109 L13.0785743,12.0745446 C13.295036,12.2671588 13.3262212,12.5973546 13.1427791,12.8266572 C12.9538337,13.0614631 12.6107969,13.099986 12.3741566,12.9110406 L10.6993301,11.505874 C9.52530063,12.7294329 7.68721067,13.0357812 6.17931652,12.2598211 C4.29903488,11.2930812 3.56343202,8.98354499 4.53200636,7.10509777 Z M7.93118868,6.1255169 C6.41962569,6.12735132 5.19606681,7.34907578 5.19606681,8.86063877 C5.19790123,10.3703673 6.41962569,11.5939262 7.93118868,11.5939262 C9.43908283,11.5939262 10.6626417,10.3685329 10.6644761,8.86063877 C10.6644761,7.3509102 9.44275168,6.1255169 7.93118868,6.1255169 Z" id="形状结合" fill="#FFFFFF" fill-rule="nonzero"></path>
            </g>
        </g>
    </g>
</svg>