<?xml version="1.0" encoding="UTF-8"?>
<svg width="18px" height="16px" viewBox="0 0 18 16" version="1.1" xmlns="http://www.w3.org/2000/svg" xmlns:xlink="http://www.w3.org/1999/xlink">
    <title>服务01</title>
    <defs>
        <linearGradient x1="50%" y1="0%" x2="50%" y2="100%" id="linearGradient-1">
            <stop stop-color="#2177FF" offset="0%"></stop>
            <stop stop-color="#4E92FF" offset="100%"></stop>
        </linearGradient>
    </defs>
    <g id="Page-1" stroke="none" stroke-width="1" fill="none" fill-rule="evenodd">
        <g id="画板" transform="translate(-40, -271)">
            <g id="服务01" transform="translate(40, 271)">
                <polygon id="矩形" fill="#FFFFFF" transform="translate(5.8377, 3.7159) rotate(-314) translate(-5.8377, -3.7159)" points="5.68165269 0.233485861 6.78782682 0.237369996 7.17576994 7.19840636 4.49968379 6.54061378"></polygon>
                <path d="M14.5488729,0.319420138 C12.2695525,-0.444476048 10.7766095,0.333225491 10.0184009,0.956767258 C10.0160535,0.95906815 10.0160535,0.961369043 10.0137061,0.963669935 L8.63109061,2.3188954 L4.99028128,5.88757909 C4.77666836,6.09696028 4.42925393,6.09696028 4.21329361,5.88757909 C3.99968068,5.67819791 3.99968068,5.33766587 4.21329361,5.1259838 L8.23438089,1.18455558 C7.58884732,0.551810244 6.0207876,-0.54341441 3.4503903,0.317119246 C1.49031564,1.14083863 -2.5918039,4.98332848 2.35180953,9.73697162 C7.29542297,14.4906148 8.85174572,15.8366367 8.85174572,15.8366367 L9.00197899,16 L9.15221226,15.8366367 C9.15221226,15.8366367 10.708535,14.4906148 15.6521484,9.73697162 C20.5910671,4.98332848 16.5066001,1.14313952 14.5488729,0.319420138 L14.5488729,0.319420138 Z" id="路径" fill="url(#linearGradient-1)" fill-rule="nonzero"></path>
            </g>
        </g>
    </g>
</svg>