<?xml version="1.0" standalone="no"?><!DOCTYPE svg PUBLIC "-//W3C//DTD SVG 1.1//EN" "http://www.w3.org/Graphics/SVG/1.1/DTD/svg11.dtd"><svg t="1754548264481" class="icon" viewBox="0 0 1024 1024" version="1.1" xmlns="http://www.w3.org/2000/svg" p-id="1622" xmlns:xlink="http://www.w3.org/1999/xlink" width="200" height="200"><path d="M876.99911111 258.27555555L547.49866667 66.67377778c-22.07288889-12.97066667-49.26577778-12.97066667-70.99733334 0L147.00088889 258.27555555c-22.07288889 12.97066667-35.49866667 36.18133333-35.49866667 62.12266667v383.20355556c0 25.48622222 13.312 49.152 35.49866667 62.12266667l329.50044444 191.60177777c22.07288889 12.97066667 49.26577778 12.97066667 70.99733334 0L876.99911111 765.72444445c22.07288889-12.97066667 35.49866667-36.18133333 35.49866667-62.12266667V319.94311111c0-25.48622222-13.312-49.152-35.49866667-61.66755556zM761.74222222 391.85066667l-209.69244444 107.17866666v248.14933334c0 22.30044445-17.97688889 40.39111111-40.04977778 40.39111111-22.07288889 0-40.04977778-18.09066667-40.04977778-40.39111111V499.02933333l-209.69244444-107.17866666c-19.79733333-10.24-27.648-34.36088889-17.52177778-54.272 10.12622222-19.91111111 34.13333333-27.87555555 53.93066667-17.63555556L512 429.39733333l213.78844445-108.99911111c19.79733333-10.24 43.80444445-1.82044445 53.93066666 17.63555556 10.24 19.456 1.93422222 44.032-17.97688889 53.81688889z m0 0" p-id="1623"></path></svg>