<?xml version="1.0" standalone="no"?><!DOCTYPE svg PUBLIC "-//W3C//DTD SVG 1.1//EN" "http://www.w3.org/Graphics/SVG/1.1/DTD/svg11.dtd"><svg t="1754548276950" class="icon" viewBox="0 0 1024 1024" version="1.1" xmlns="http://www.w3.org/2000/svg" p-id="1768" xmlns:xlink="http://www.w3.org/1999/xlink" width="200" height="200"><path d="M819.059894 235.089999H204.931673A134.302871 134.302871 0 0 0 70.583918 369.341795V631.46726a134.302871 134.302871 0 0 0 134.347755 134.251797h614.134412A134.298228 134.298228 0 0 0 953.409197 631.46726V369.340248a134.299776 134.299776 0 0 0-134.349303-134.250249z m-424.460529 432.016468h-93.91373V338.3999h93.91373z m333.411618 0H634.091062V338.3999h93.919921zM777.314956 1023.993809c0-24.478643-9.365217-57.731275-22.992838-80.287657-13.62143-22.562573-33.565271-42.984657-58.673832-60.082253-25.114753-17.091404-54.864909-30.506988-87.512386-39.454322a365.99409 365.99409 0 0 0-102.602596-12.647917 360.936161 360.936161 0 0 0-101.591938 16.147299c-31.975769 10.06014-60.747769 24.48019-84.616613 42.418194-23.875034 17.931813-42.360929 39.025605-54.382022 62.016894a133.787483 133.787483 0 0 0-15.59167 71.889762zM556.776563 132.117499L688.89561 0l49.762096 49.762096-132.117499 132.112857z m-85.387374 0L339.267046 0l-49.755905 49.762096 132.111308 132.112857z" p-id="1769"></path></svg>