<?xml version="1.0" encoding="UTF-8"?>
<svg width="16px" height="16px" viewBox="0 0 16 16" version="1.1" xmlns="http://www.w3.org/2000/svg" xmlns:xlink="http://www.w3.org/1999/xlink">
    <title>股市</title>
    <defs>
        <linearGradient x1="50%" y1="0%" x2="50%" y2="100%" id="linearGradient-1">
            <stop stop-color="#2177FF" offset="0%"></stop>
            <stop stop-color="#4E92FF" offset="100%"></stop>
        </linearGradient>
    </defs>
    <g id="Page-1" stroke="none" stroke-width="1" fill="none" fill-rule="evenodd">
        <g id="画板" transform="translate(-112, -271)">
            <g id="股市" transform="translate(112, 271)">
                <path d="M14.630076,5.04483873 C15.2878429,4.2813808 16.0176939,4.45614828 15.9996729,5.40357197 L15.9991482,5.86559852 C15.9990808,5.91167526 15.9990075,5.96055498 15.9989284,6.01208648 L15.9980723,6.54338514 C15.9977415,6.74162889 15.9973679,6.95965598 15.9969598,7.19338377 L15.9961002,7.68056397 C15.9948993,8.35482416 15.9934925,9.12137919 15.9920367,9.90281048 L15.9909382,10.4904636 C15.9883648,11.8625174 15.9857614,13.2208562 15.9839686,14.1505646 L15.9832524,14.5215588 C15.9831421,14.5786142 15.9830366,14.6331802 15.9829361,14.6851058 L15.9821765,15.0770591 C15.9821091,15.1117807 15.9820477,15.1434082 15.9819925,15.1717903 L15.9816519,15.3469215 C15.9816519,15.7056548 15.7023262,16 15.3509165,16 L0.753897564,15.9908017 C0.393477344,15.9816034 0.114151674,15.6872582 0.114151674,15.328525 L0.105141168,11.0513209 C0.105141168,10.3614493 0.447540377,9.99351779 0.798950092,10.3430527 L2.7722508,11.9435549 C3.03355546,12.1827104 3.4300177,12.4954522 3.65528034,12.2195035 L5.91691722,9.39562906 C6.14217985,9.11048212 6.5386421,8.72415401 6.80895726,8.95411122 L8.75522645,10.701786 C9.02554161,10.9317432 9.57518245,11.3272696 9.79143458,11.0513209 Z M15.0986223,0.0225733551 C15.8194628,-0.0970043918 16.0176939,0.270927137 15.5491476,0.832022719 L14.6751286,1.88062758 C14.648097,1.92661902 14.6210655,1.98180875 14.5850235,2.02780019 L9.62023498,8.55858483 C9.44903537,8.79774032 9.18773071,8.94491293 8.89939454,8.9725078 C8.62006887,9.00930095 8.33173269,8.91731807 8.11548056,8.72415401 L5.95295924,6.85690151 L3.78142741,9.78195716 C3.61022781,10.0119144 3.35793365,10.1682853 3.06959748,10.2050784 C3.02454495,10.2142767 2.98850293,10.2142767 2.9434504,10.2142767 C2.70016675,10.2142767 2.46589361,10.1222938 2.27667299,9.96592293 L0.384466839,8.38381735 C-0.0660584361,8.00668753 -0.129131975,7.3260142 0.240298751,6.86609979 C0.240298751,6.85690151 0.249309256,6.85690151 0.249309256,6.84770322 C0.618739982,6.39698709 1.27650688,6.33259908 1.71802165,6.70972889 L2.76324029,7.58356628 L4.94378262,4.63091576 L4.97982464,4.58492431 C5.35826588,4.13420819 6.02504328,4.07901846 6.46655805,4.45614828 L8.63808988,6.33259908 L11.4763991,2.58889577 L10.6564431,1.81623956 C10.1338338,1.31953199 10.2780019,0.813626142 10.9898318,0.694048395 Z" id="形状结合" fill="url(#linearGradient-1)" fill-rule="nonzero"></path>
                <rect id="矩形" fill="#FFFFFF" x="3" y="13.5" width="10" height="1" rx="0.5"></rect>
            </g>
        </g>
    </g>
</svg>