<?xml version="1.0" encoding="UTF-8"?>
<svg width="14px" height="16px" viewBox="0 0 14 16" version="1.1" xmlns="http://www.w3.org/2000/svg" xmlns:xlink="http://www.w3.org/1999/xlink">
    <title>检查任务管理</title>
    <defs>
        <linearGradient x1="50%" y1="0%" x2="50%" y2="100%" id="linearGradient-1">
            <stop stop-color="#2177FF" offset="0%"></stop>
            <stop stop-color="#4E92FF" offset="100%"></stop>
        </linearGradient>
    </defs>
    <g id="Page-1" stroke="none" stroke-width="1" fill="none" fill-rule="evenodd">
        <g id="画板" transform="translate(-254, -272)">
            <g id="检查任务管理" transform="translate(254, 272)">
                <rect id="矩形" fill="#FFFFFF" x="2" y="2" width="10" height="11"></rect>
                <path d="M13.125,0 C13.6082492,0 14,0.377023379 14,0.842105269 L14,16 L10.5,14.3157895 L7,16 L3.5,14.3157895 L0,16 L0,0.842105269 C0,0.377023379 0.391750835,0 0.874999987,0 L13.125,0 L13.125,0 Z M6.650875,3.36840134 L3.49999999,3.36840134 L3.49999999,11.7894737 L4.54999999,11.7894737 L4.54999999,7.99999999 L6.99999999,7.99999999 L6.99999999,8.32842104 C6.99999999,8.41599998 7.03500001,8.50105263 7.10062501,8.56336841 C7.16653393,8.62621177 7.25547207,8.66159894 7.34824999,8.66189473 L10.15175,8.66189473 C10.3430087,8.66098356 10.4980897,8.51248262 10.5,8.32842104 L10.5,4.36294737 C10.5005756,4.2748095 10.4643161,4.19014798 10.399375,4.128 C10.3333248,4.06546508 10.2444038,4.03038714 10.15175,4.03031579 L7.35000001,4.03031579 C7.34663119,3.66183131 7.03375715,3.36561866 6.650875,3.36840134 Z" id="形状" fill="url(#linearGradient-1)" fill-rule="nonzero"></path>
            </g>
        </g>
    </g>
</svg>