<?xml version="1.0" encoding="UTF-8"?>
<svg width="16px" height="16px" viewBox="0 0 16 16" version="1.1" xmlns="http://www.w3.org/2000/svg" xmlns:xlink="http://www.w3.org/1999/xlink">
    <title>smls icon_电源计算工具</title>
    <defs>
        <linearGradient x1="50%" y1="0%" x2="50%" y2="100%" id="linearGradient-1">
            <stop stop-color="#2177FF" offset="0%"></stop>
            <stop stop-color="#4E92FF" offset="100%"></stop>
        </linearGradient>
    </defs>
    <g id="Page-1" stroke="none" stroke-width="1" fill="none" fill-rule="evenodd">
        <g id="画板" transform="translate(-292, -343)">
            <g id="smls-icon_电源计算工具" transform="translate(292, 343)">
                <rect id="矩形" fill="#FFFFFF" x="4" y="8" width="9" height="7"></rect>
                <path d="M15.1053763,3.21075943 L12.4444444,3.21075943 L12.4444444,0.802743426 C12.4444444,0.363949398 12.0430108,7.14237432e-05 11.5612903,7.14237432e-05 L4.45017921,7.14237432e-05 C4.21898821,-0.0027857506 3.99605189,0.0801804854 3.83042397,0.230714681 C3.66479605,0.381248876 3.57004707,0.58701718 3.56702509,0.802743426 L3.56702509,3.21075943 L0.894623656,3.21075943 C0.663432658,3.20790226 0.440496335,3.29086849 0.274868414,3.44140269 C0.109240492,3.59193688 0.0144915112,3.79770519 0.0114695341,4.01343143 L0.0114695341,6.42144744 L16,6.42144744 L16,4.01343143 C15.9803391,3.56546821 15.5858555,3.21153058 15.1053763,3.21075943 Z M10.6551971,3.21075943 L5.33333333,3.21075943 L5.33333333,1.87297276 C5.33333333,1.72314066 5.47096774,1.60541543 5.63154122,1.60541543 L10.3684588,1.60541543 C10.5290323,1.60541543 10.6666667,1.72314066 10.6666667,1.87297276 L10.6666667,3.21075943 L10.6551971,3.21075943 Z M0,14.7478317 C0,15.4434807 0.401433692,16 0.883154122,16 L15.0939068,16 C15.5870968,16 15.9770609,15.4434807 15.9770609,14.7478317 L15.9770609,7.23482174 L0,7.23482174 L0,14.7478317 Z M7.13405018,8.96859326 L9.94408602,8.96859326 L8.22365591,11.0127313 L10.5634409,11.0127313 L6.81290323,14.8013431 L7.59283154,12.0294492 L5.42508961,12.0294492 L7.13405018,8.96859326 L7.13405018,8.96859326 Z" id="形状" fill="url(#linearGradient-1)" fill-rule="nonzero"></path>
            </g>
        </g>
    </g>
</svg>