<?xml version="1.0" encoding="UTF-8"?>
<svg width="18px" height="16px" viewBox="0 0 18 16" version="1.1" xmlns="http://www.w3.org/2000/svg" xmlns:xlink="http://www.w3.org/1999/xlink">
    <title>维修</title>
    <defs>
        <linearGradient x1="50%" y1="0%" x2="50%" y2="100%" id="linearGradient-1">
            <stop stop-color="#2177FF" offset="0%"></stop>
            <stop stop-color="#4E92FF" offset="100%"></stop>
        </linearGradient>
    </defs>
    <g id="Page-1" stroke="none" stroke-width="1" fill="none" fill-rule="evenodd">
        <g id="画板" transform="translate(-76, -235)" fill-rule="nonzero">
            <g id="维修" transform="translate(76, 235)">
                <polygon id="路径" fill="#FFFFFF" points="3.97673529 2.89904357 14.0232647 2.89904357 14.0232647 13.1009564 3.97673529 13.1009564"></polygon>
                <path d="M13.1860539,0 C13.4103782,0 13.6176602,0.121534612 13.7298223,0.318809777 L17.9158763,7.68119022 C18.0280412,7.8784704 18.0280412,8.1215296 17.9158763,8.31880978 L13.7298223,15.6811902 C13.6176602,15.8784654 13.4103782,16 13.1860539,16 L4.81394608,16 C4.58962182,16 4.3823398,15.8784654 4.27017767,15.6811902 L0.0841237327,8.31880978 C-0.0280412442,8.1215296 -0.0280412442,7.8784704 0.0841237327,7.68119022 L4.27017767,0.318809777 C4.3823398,0.121534612 4.58962182,0 4.81394608,0 L13.1860539,0 Z M6.52143746,3.90435706 L8.28460338,5.69564293 L6.73074017,7.27353878 L4.96715565,5.482678 C4.51380601,6.56450584 4.71975987,7.86142401 5.58585441,8.74091392 C6.45194897,9.62082891 7.72911403,9.82954305 8.79446475,9.3696068 L10.7020495,11.3062699 C10.9783938,11.5942436 11.385942,11.7089688 11.7688529,11.6065761 C12.1517638,11.5041835 12.4508119,11.2005102 12.551645,10.811677 C12.6524782,10.4228439 12.5395003,10.0089924 12.2559128,9.72837406 L10.3487466,7.79086079 C10.8016776,6.70903295 10.5957238,5.41253985 9.7296292,4.53304994 C8.86395325,3.65356003 7.5867882,3.4448459 6.52143746,3.90435706 L6.52143746,3.90435706 Z" id="形状" fill="url(#linearGradient-1)"></path>
            </g>
        </g>
    </g>
</svg>