<?xml version="1.0" encoding="UTF-8"?>
<svg width="16px" height="16px" viewBox="0 0 16 16" version="1.1" xmlns="http://www.w3.org/2000/svg" xmlns:xlink="http://www.w3.org/1999/xlink">
    <title>smls icon_密码修改</title>
    <defs>
        <linearGradient x1="50%" y1="0%" x2="50%" y2="100%" id="linearGradient-1">
            <stop stop-color="#2177FF" offset="0%"></stop>
            <stop stop-color="#4E92FF" offset="100%"></stop>
        </linearGradient>
    </defs>
    <g id="Page-1" stroke="none" stroke-width="1" fill="none" fill-rule="evenodd">
        <g id="画板" transform="translate(-114, -343)">
            <g id="smls-icon_密码修改" transform="translate(114, 343)">
                <ellipse id="椭圆形" fill="#FFFFFF" cx="7" cy="4.5" rx="3" ry="3.5"></ellipse>
                <path d="M3.28668772,1.8568532 C4.28652152,0.404990348 6.14791424,-0.30592181 7.88166861,0.124630624 C9.71115174,0.575208752 10.9130796,1.89690459 11.0939006,3.79934558 C11.1577198,4.4601935 11.1577198,5.08099003 11.1470833,5.38137545 C11.1470833,5.51154247 11.0939006,5.63169663 10.9981718,5.73182511 L6.62655809,10.2376064 C6.57337544,10.2976835 6.54146585,10.3677734 6.54146585,10.4478762 L6.54146585,13.5919102 C6.54146585,13.7621286 6.69037726,13.9023085 6.87119827,13.9023085 L10.1153399,13.9023085 C10.2110686,13.9023085 10.2961609,13.87227 10.3599801,13.8222057 L13.5615755,10.6080817 C13.6253947,10.5480047 13.73176,10.5980689 13.73176,10.6781717 C13.7360146,11.1387626 13.7385674,11.5496899 13.7394183,11.9679866 L13.7394183,12.6080879 C13.7385674,13.0480124 13.7360146,13.5238229 13.73176,14.0925526 C13.7211235,15.1238759 12.8170184,15.9749679 11.7214559,15.9849807 C8.49858734,16.0050064 5.28635533,16.0050064 2.06348679,15.9849807 C0.932817142,15.9687416 0.0220437289,15.1069299 0.0106365298,14.0424884 C0,12.951088 0,11.8596876 0,10.7682873 L0,10.7582744 C0,9.67688694 0,8.59549943 0.0106365298,7.51411192 C0.0106365298,6.4727758 0.893468506,5.61167094 1.99966761,5.59164524 L2.65913246,5.59164524 C2.65913246,5.59164524 2.48894798,3.00833064 3.28668772,1.8568532 Z M12.3383746,6.1123133 L14.2104039,7.90461297 L9.58351338,12.7408182 C9.5196942,12.8109081 9.42396543,12.8509595 9.32823666,12.8509595 L7.77530331,12.8509595 C7.67957454,12.8509595 7.60511883,12.7808696 7.60511883,12.690754 L7.60511883,11.1688012 C7.60511883,11.0886984 7.63702842,11.0186085 7.7008476,10.9585314 L12.3383746,6.1123133 Z M13.9870367,4.53028343 C14.1891308,4.33002649 14.5294998,4.33002649 14.7315938,4.53028343 L15.8484294,5.61167094 C16.0505235,5.81192788 16.0505235,6.14235184 15.8484294,6.34260879 L14.7315938,7.43400914 L12.8595646,5.62168379 Z M6.84992521,1.59651918 C5.4565398,1.59651918 4.33970417,2.64786814 4.32906764,3.97957683 C4.31843111,4.41012926 4.33970417,4.8406817 4.31843111,5.26122128 C4.30779458,5.51154247 4.36097723,5.60165809 4.6694366,5.61167094 C5.41399368,5.59164524 6.1691873,5.60165809 6.91374439,5.60165809 C7.64766495,5.60165809 8.38158551,5.59164524 9.11550607,5.60165809 C9.33887319,5.60165809 9.43460196,5.5616067 9.42396543,5.32129837 C9.40269237,4.87072024 9.42396543,4.41012926 9.4133289,3.95955114 C9.38141931,2.62784245 8.25394715,1.58650633 6.84992521,1.59651918 Z" id="形状结合" fill="url(#linearGradient-1)" fill-rule="nonzero"></path>
            </g>
        </g>
    </g>
</svg>