<?xml version="1.0" encoding="UTF-8"?>
<svg width="16px" height="16px" viewBox="0 0 16 16" version="1.1" xmlns="http://www.w3.org/2000/svg" xmlns:xlink="http://www.w3.org/1999/xlink">
    <title>工作台</title>
    <defs>
        <linearGradient x1="50%" y1="0%" x2="50%" y2="100%" id="linearGradient-1">
            <stop stop-color="#2177FF" offset="0%"></stop>
            <stop stop-color="#4E92FF" offset="100%"></stop>
        </linearGradient>
    </defs>
    <g id="Page-1" stroke="none" stroke-width="1" fill="none" fill-rule="evenodd">
        <g id="画板" transform="translate(-40, -235)">
            <g id="工作台" transform="translate(40, 235)">
                <rect id="矩形" fill="#FFFFFF" x="1" y="2" width="14" height="9"></rect>
                <path d="M12.850268,14.8689436 L3.2295225,14.8689436 C2.97618751,14.8689436 2.76873208,15.1231136 2.76873208,15.4344718 C2.76873208,15.74583 2.97618751,16 3.2295225,16 L12.8522628,16 C13.1055978,16 13.3130532,15.74583 13.3130532,15.4344718 C13.3130532,15.1231136 13.1055978,14.8689436 12.850268,14.8689436 L12.850268,14.8689436 Z M15.0824087,0 L0.915596559,0 C0.410921332,0 0,0.434207043 0,0.972200159 L0,11.9099815 C0,12.4458565 0.408926568,12.8821816 0.915596559,12.8821816 L15.0844034,12.8821816 C15.5890787,12.8821816 16,12.4479746 16,11.9099815 L16,0.972200159 C15.9980052,0.434207043 15.5890787,0 15.0824087,0 Z M13.7898018,4.31029918 L9.83418526,7.974583 C9.50903877,8.27746889 9.03627977,8.33042097 8.65727465,8.10802224 L6.0740556,6.58512047 C6.01022316,6.54699497 5.92843785,6.55970347 5.87856876,6.61689171 L3.37314549,9.42335187 C3.25545443,9.55467302 3.08988904,9.62880593 2.92033412,9.62880593 C2.7567635,9.62880593 2.60316669,9.56314535 2.48747039,9.44241461 C2.23812492,9.18824464 2.23014587,8.76674609 2.46951752,8.5019857 L5.18040145,5.46465449 C5.50355317,5.10669844 6.01620746,5.0240932 6.42313926,5.26555467 L9.02830071,6.80328303 C9.08814362,6.83929044 9.16194988,6.83081811 9.21381374,6.7821022 L12.9659643,3.30844586 C13.0916345,3.19195128 13.2512156,3.13264496 13.4207705,3.14535346 C13.5883306,3.15806195 13.7399327,3.23854911 13.8496447,3.37198835 C13.9593567,3.50542759 14.0132153,3.67699232 14.0032415,3.85279322 C13.9932677,4.03071221 13.9174667,4.19380461 13.7898018,4.31029918 L13.7898018,4.31029918 Z" id="形状" fill="url(#linearGradient-1)" fill-rule="nonzero"></path>
            </g>
        </g>
    </g>
</svg>